<svg width="2600" height="909" viewBox="0 0 2600 909" fill="none" xmlns="http://www.w3.org/2000/svg">
<path d="M616.176 491.8C616.476 394.4 616.576 391.2 618.576 382.5C623.276 362 631.876 343.2 643.376 327.9C650.776 318 666.676 302.3 675.876 295.8C697.376 280.6 722.076 271.9 748.076 270.3L757.876 269.7V309.3C757.876 333.1 757.476 349 756.976 349C752.876 349 739.576 351.5 735.276 353.1C719.076 359.2 704.176 374.5 697.976 391.4L695.376 398.5L694.876 475.9L694.376 553.4L656.376 572.7C635.476 583.3 617.776 592 617.076 592C616.076 592 615.876 573.1 616.176 491.8Z" fill="white"/>
<path d="M1165.18 484.8C1165.48 386.2 1165.58 376.9 1167.28 370C1173.28 344.4 1183.58 326.1 1202.28 307.4C1221.48 288.1 1242.08 276.9 1267.38 271.9C1277.88 269.8 1305.28 270 1315.38 272.3C1342.88 278.5 1362.58 289.5 1381.48 309.2C1398.68 327.1 1409.38 347.5 1413.98 371.3C1415.78 380.4 1415.88 386.7 1415.88 467V553L1376.68 552.8L1337.38 552.5L1336.88 467.5C1336.28 371.8 1337.08 380.7 1328.28 368.4C1318.58 354.7 1303.68 348 1286.18 349.3C1267.48 350.7 1249.18 366.6 1244.98 385.1C1244.28 387.9 1243.88 419.8 1243.88 471.2V553L1204.88 572.5C1183.48 583.2 1165.68 592 1165.38 592C1165.08 592 1164.98 543.7 1165.18 484.8Z" fill="white"/>
<path d="M929.875 551.4C896.175 546 863.175 525.1 840.275 494.7C812.375 457.7 805.475 405.4 822.575 360.5C829.675 341.9 839.475 327.2 855.275 311.5C876.575 290.4 899.575 277.9 927.575 272.3C940.075 269.8 969.975 269.9 982.375 272.4C1018.88 279.8 1052.08 302.1 1072.88 333.1C1089.38 357.9 1096.18 380.6 1096.28 411.5C1096.28 450.6 1083.88 481.4 1056.98 509.3C1035.78 531.2 1014.48 543.5 985.875 550.2C974.175 552.9 943.475 553.6 929.875 551.4Z" fill="white"/>
<path d="M1490.88 431.2V309.5L1529.68 290C1550.98 279.3 1568.68 270.4 1569.18 270.2C1569.58 270 1569.88 333.5 1569.88 411.4V553H1530.38H1490.88V431.2Z" fill="white"/>
<path d="M1757.98 551.4C1740.68 548.7 1721.28 541 1705.28 530.4C1694.38 523.2 1676.18 505.8 1668.28 495C1655.78 478 1646.68 456 1643.28 434.3C1639.78 412 1642.68 381.7 1650.18 362C1660.28 335.1 1679.78 310.8 1704.38 294C1746.48 265.4 1802.58 262.5 1848.88 286.6C1877.38 301.4 1900.38 326.2 1913.18 355.8L1915.78 362H1868.68H1821.58L1816.48 358.9C1804.38 351.4 1788.68 348 1774.98 349.9C1759.08 352 1750.08 356.6 1738.38 368.4C1724.88 382 1720.28 394.5 1721.18 415C1721.78 428.9 1723.98 436 1730.98 446.5C1736.48 454.7 1741.28 459.4 1750.08 465.1C1759.88 471.4 1765.78 473.2 1778.88 473.7C1796.38 474.5 1806.58 471.7 1819.48 462.4L1826.98 457H1871.98C1896.68 457 1916.88 457.3 1916.88 457.6C1916.88 459.5 1908.88 476.5 1904.78 483.5C1898.18 494.8 1892.38 502.2 1882.68 511.8C1870.58 523.8 1860.08 531.3 1845.38 538.5C1823.98 549.1 1806.48 553.1 1781.88 552.9C1773.88 552.8 1763.18 552.2 1757.98 551.4Z" fill="white"/>
<path d="M1524.88 254C1506.98 251.5 1493.68 234.5 1495.18 216.1C1495.78 207.5 1498.68 201.2 1504.88 194.6C1518.48 180.2 1539.48 179.3 1553.68 192.5C1562.18 200.3 1565.38 207.7 1565.38 219C1565.38 226.6 1564.98 228.3 1562.08 234.2C1555.08 248.4 1540.48 256.3 1524.88 254Z" fill="white"/>
<path d="M647.646 842V794.84H659.24V842H647.646ZM618.826 842V794.84H630.485V842H618.826ZM625.114 823.398V813.311H653.017V823.398H625.114ZM688.749 842.721C685.562 842.721 682.614 842.371 679.907 841.672C677.243 840.974 674.951 839.904 673.029 838.463C671.152 836.978 669.689 835.035 668.641 832.633C667.637 830.232 667.134 827.35 667.134 823.987C667.134 820.057 667.877 816.695 669.361 813.9C670.846 811.062 672.964 808.901 675.715 807.416C678.466 805.931 681.719 805.189 685.474 805.189C689.535 805.189 692.854 806.04 695.43 807.743C698.007 809.446 699.863 811.783 700.998 814.752C702.177 817.721 702.657 821.084 702.439 824.839L702.373 827.197H674.208V820.385H691.369V820.057C691.369 817.874 690.867 816.193 689.863 815.014C688.902 813.791 687.374 813.18 685.278 813.18C683.924 813.18 682.745 813.486 681.741 814.097C680.78 814.708 680.016 815.734 679.448 817.175C678.924 818.573 678.662 820.494 678.662 822.939V825.035C678.662 827.35 679.121 829.162 680.038 830.472C680.999 831.738 682.309 832.655 683.968 833.223C685.627 833.747 687.57 834.009 689.797 834.009C691.806 834.009 693.64 833.812 695.299 833.419C697.002 833.026 698.312 832.568 699.229 832.044H699.884V841.017C698.574 841.541 697.002 841.956 695.168 842.262C693.378 842.568 691.238 842.721 688.749 842.721ZM724.851 842.786C719.087 842.786 714.742 841.934 711.816 840.231C708.891 838.485 707.428 835.515 707.428 831.323C707.428 828.66 708.083 826.498 709.393 824.839C710.746 823.18 712.602 821.979 714.96 821.236C717.318 820.45 720.004 820.057 723.017 820.057C724.501 820.057 725.855 820.145 727.078 820.319C728.3 820.494 729.458 820.712 730.549 820.974V827.721C729.894 827.503 729.021 827.306 727.929 827.131C726.838 826.957 725.79 826.869 724.785 826.869C722.471 826.869 720.746 827.197 719.611 827.852C718.519 828.507 717.973 829.599 717.973 831.127C717.973 832.655 718.519 833.725 719.611 834.336C720.746 834.948 722.34 835.253 724.392 835.253C725.746 835.253 727.056 835.122 728.322 834.86C729.589 834.555 730.658 834.053 731.532 833.354L730.222 836.563C729.916 835.865 729.676 835.232 729.501 834.664C729.327 834.096 729.196 833.507 729.108 832.895C729.021 832.24 728.955 831.476 728.912 830.603C728.912 829.686 728.912 828.551 728.912 827.197V820.319C728.912 818.529 728.606 817.154 727.995 816.193C727.383 815.232 726.445 814.599 725.178 814.293C723.956 813.944 722.405 813.769 720.528 813.769C718.65 813.769 716.86 813.944 715.157 814.293C713.497 814.599 712.144 814.992 711.096 815.472H710.441V806.695C712.013 806.259 713.759 805.909 715.681 805.647C717.646 805.342 719.72 805.189 721.903 805.189C724.567 805.189 727.012 805.429 729.239 805.91C731.466 806.39 733.388 807.219 735.003 808.398C736.663 809.534 737.929 811.128 738.802 813.18C739.676 815.189 740.112 817.787 740.112 820.974V828.9C740.112 829.817 740.134 830.952 740.178 832.306C740.221 833.66 740.287 834.991 740.374 836.301C740.462 837.611 740.614 838.659 740.833 839.445L740.571 839.969C739.042 840.537 737.427 841.039 735.724 841.476C734.021 841.869 732.252 842.175 730.418 842.393C728.584 842.655 726.728 842.786 724.851 842.786ZM749.57 842V803.158C749.57 802.241 749.548 801.128 749.505 799.818C749.505 798.464 749.439 797.154 749.308 795.888C749.221 794.578 749.09 793.53 748.915 792.744L749.112 792.22H761.098V842H749.57ZM788.68 842.524C785.493 842.524 782.698 842.109 780.296 841.279C777.938 840.406 776.083 838.965 774.729 836.956C773.419 834.904 772.764 832.153 772.764 828.703V797.198H784.292V827.852C784.292 829.861 784.772 831.302 785.733 832.175C786.737 833.005 788.287 833.419 790.383 833.419C791.169 833.419 791.934 833.332 792.676 833.157C793.418 832.983 794.073 832.786 794.641 832.568H795.361V841.607C794.401 841.913 793.396 842.131 792.348 842.262C791.3 842.437 790.078 842.524 788.68 842.524ZM766.934 815.079V806.171H793.724V815.079H766.934ZM801.766 842V803.093C801.766 802.22 801.744 801.128 801.7 799.818C801.7 798.464 801.635 797.154 801.504 795.888C801.416 794.578 801.285 793.53 801.111 792.744L801.307 792.22H813.294V810.953L810.87 807.154C812.18 806.586 813.577 806.128 815.062 805.778C816.59 805.385 818.403 805.189 820.499 805.189C822.857 805.189 825.018 805.516 826.983 806.171C828.948 806.783 830.607 807.743 831.961 809.053C833.358 810.363 834.428 812.066 835.171 814.162C835.957 816.215 836.35 818.682 836.35 821.564V842H824.822V821.826C824.822 819.905 824.516 818.42 823.905 817.372C823.293 816.28 822.442 815.516 821.35 815.079C820.258 814.599 818.97 814.359 817.486 814.359C816.787 814.359 815.979 814.446 815.062 814.621C814.145 814.796 813.315 814.948 812.573 815.079C811.874 815.21 811.394 815.298 811.132 815.341L813.294 810.363V842H801.766ZM860.199 829.948H860.854C861.945 830.516 863.255 831.061 864.784 831.585C866.312 832.109 867.971 832.546 869.762 832.895C871.596 833.201 873.43 833.354 875.264 833.354C877.185 833.354 878.779 833.223 880.045 832.961C881.355 832.699 882.338 832.284 882.993 831.716C883.691 831.105 884.041 830.297 884.041 829.293C884.041 828.027 883.604 827.088 882.731 826.476C881.901 825.865 880.395 825.385 878.211 825.035L873.888 824.38C870.657 823.9 867.906 823.07 865.635 821.891C863.408 820.712 861.727 819.162 860.592 817.241C859.456 815.276 858.889 812.918 858.889 810.167C858.889 806.805 859.675 803.923 861.247 801.521C862.862 799.119 865.308 797.285 868.583 796.019C871.858 794.709 876.05 794.054 881.159 794.054C883.429 794.054 885.613 794.25 887.709 794.643C889.805 794.993 891.551 795.473 892.949 796.084V805.975H892.228C890.918 805.364 889.237 804.796 887.185 804.272C885.132 803.748 882.84 803.486 880.307 803.486C878.124 803.486 876.268 803.704 874.74 804.141C873.255 804.578 872.12 805.254 871.334 806.171C870.548 807.045 870.155 808.158 870.155 809.512C870.155 811.259 870.722 812.503 871.858 813.245C872.993 813.988 874.827 814.577 877.36 815.014L881.486 815.669C884.063 816.062 886.399 816.761 888.495 817.765C890.634 818.769 892.316 820.167 893.538 821.957C894.805 823.747 895.438 826.105 895.438 829.031C895.438 831.52 894.914 833.66 893.866 835.45C892.818 837.197 891.355 838.616 889.477 839.707C887.643 840.755 885.504 841.52 883.058 842C880.657 842.524 878.058 842.786 875.264 842.786C873.299 842.786 871.356 842.655 869.434 842.393C867.557 842.175 865.81 841.869 864.194 841.476C862.579 841.083 861.247 840.668 860.199 840.231V829.948ZM906.23 857.196V856.41L915.269 835.057L925.29 806.171H937.015V806.957L917.823 857.196H906.23ZM912.583 845.668L898.37 806.957V806.171H910.684L918.74 833.419L912.583 845.668ZM940.277 831.454H940.801C942.373 832.109 944.272 832.699 946.499 833.223C948.726 833.747 950.953 834.009 953.18 834.009C954.053 834.009 954.861 833.987 955.604 833.943C956.346 833.856 956.979 833.725 957.503 833.55C958.071 833.376 958.507 833.092 958.813 832.699C959.119 832.306 959.272 831.782 959.272 831.127C959.272 830.166 958.857 829.511 958.027 829.162C957.241 828.813 955.844 828.463 953.835 828.114L950.888 827.59C947.569 826.979 944.927 825.909 942.962 824.38C941.041 822.852 940.08 820.516 940.08 817.372C940.08 815.101 940.691 813.071 941.914 811.28C943.137 809.446 945.058 808.027 947.678 807.023C950.298 805.975 953.682 805.451 957.831 805.451C959.796 805.451 961.586 805.56 963.202 805.778C964.861 805.997 966.52 806.346 968.18 806.826V815.931H967.656C965.865 815.232 964.119 814.752 962.416 814.49C960.713 814.184 959.097 814.031 957.569 814.031C955.56 814.031 953.988 814.25 952.853 814.686C951.717 815.079 951.15 815.822 951.15 816.913C951.15 817.743 951.586 818.333 952.46 818.682C953.377 819.031 954.687 819.359 956.39 819.664L959.403 820.188C961.455 820.538 963.311 821.105 964.97 821.891C966.673 822.677 968.027 823.791 969.031 825.232C970.035 826.629 970.538 828.441 970.538 830.668C970.538 834.686 969.031 837.677 966.018 839.642C963.049 841.563 958.551 842.524 952.525 842.524C950.473 842.524 948.355 842.349 946.172 842C943.988 841.651 942.023 841.214 940.277 840.69V831.454ZM994.839 842.524C991.651 842.524 988.857 842.109 986.455 841.279C984.097 840.406 982.241 838.965 980.888 836.956C979.578 834.904 978.923 832.153 978.923 828.703V797.198H990.451V827.852C990.451 829.861 990.931 831.302 991.892 832.175C992.896 833.005 994.446 833.419 996.542 833.419C997.328 833.419 998.092 833.332 998.835 833.157C999.577 832.983 1000.23 832.786 1000.8 832.568H1001.52V841.607C1000.56 841.913 999.555 842.131 998.507 842.262C997.459 842.437 996.236 842.524 994.839 842.524ZM973.093 815.079V806.171H999.883V815.079H973.093ZM1027.64 842.721C1024.45 842.721 1021.5 842.371 1018.79 841.672C1016.13 840.974 1013.84 839.904 1011.92 838.463C1010.04 836.978 1008.57 835.035 1007.53 832.633C1006.52 830.232 1006.02 827.35 1006.02 823.987C1006.02 820.057 1006.76 816.695 1008.25 813.9C1009.73 811.062 1011.85 808.901 1014.6 807.416C1017.35 805.931 1020.6 805.189 1024.36 805.189C1028.42 805.189 1031.74 806.04 1034.32 807.743C1036.89 809.446 1038.75 811.783 1039.88 814.752C1041.06 817.721 1041.54 821.084 1041.32 824.839L1041.26 827.197H1013.09V820.385H1030.26V820.057C1030.26 817.874 1029.75 816.193 1028.75 815.014C1027.79 813.791 1026.26 813.18 1024.16 813.18C1022.81 813.18 1021.63 813.486 1020.63 814.097C1019.67 814.708 1018.9 815.734 1018.33 817.175C1017.81 818.573 1017.55 820.494 1017.55 822.939V825.035C1017.55 827.35 1018.01 829.162 1018.92 830.472C1019.88 831.738 1021.19 832.655 1022.85 833.223C1024.51 833.747 1026.46 834.009 1028.68 834.009C1030.69 834.009 1032.53 833.812 1034.19 833.419C1035.89 833.026 1037.2 832.568 1038.12 832.044H1038.77V841.017C1037.46 841.541 1035.89 841.956 1034.05 842.262C1032.26 842.568 1030.12 842.721 1027.64 842.721ZM1048.99 842V819.861C1048.99 818.988 1048.97 817.874 1048.92 816.52C1048.92 815.123 1048.86 813.769 1048.73 812.459C1048.64 811.106 1048.51 810.036 1048.33 809.25L1048.53 808.726C1049.97 808.115 1051.61 807.547 1053.44 807.023C1055.28 806.499 1057.22 806.062 1059.27 805.713C1061.37 805.364 1063.47 805.189 1065.56 805.189C1067.74 805.189 1069.86 805.429 1071.91 805.91C1073.97 806.39 1075.82 807.241 1077.48 808.464C1079.19 809.643 1080.54 811.302 1081.54 813.442C1082.55 815.582 1083.05 818.289 1083.05 821.564V842H1071.52V821.957C1071.52 819.905 1071.24 818.333 1070.67 817.241C1070.1 816.149 1069.29 815.385 1068.25 814.948C1067.2 814.512 1066.02 814.293 1064.71 814.293C1063.44 814.293 1062.24 814.446 1061.11 814.752C1059.97 815.058 1058.95 815.363 1058.03 815.669L1059.67 813.114C1059.97 813.769 1060.19 814.643 1060.32 815.734C1060.45 816.782 1060.52 818.114 1060.52 819.73V842H1048.99ZM1093.66 842V821.957C1093.66 819.905 1093.38 818.333 1092.81 817.241C1092.24 816.149 1091.43 815.385 1090.39 814.948C1089.34 814.512 1088.09 814.293 1086.65 814.293C1085.74 814.293 1084.8 814.381 1083.84 814.555C1082.92 814.73 1082.07 814.948 1081.28 815.21L1075.39 808.005C1077.13 807.219 1079.14 806.564 1081.41 806.04C1083.68 805.473 1086 805.189 1088.36 805.189C1090.45 805.189 1092.48 805.407 1094.45 805.844C1096.46 806.281 1098.27 807.088 1099.88 808.267C1101.5 809.403 1102.79 811.04 1103.75 813.18C1104.71 815.32 1105.19 818.114 1105.19 821.564V842H1093.66ZM1130.35 794.84H1142.01V842H1130.35V794.84ZM1151.97 842V819.861C1151.97 818.988 1151.95 817.874 1151.91 816.52C1151.91 815.123 1151.84 813.769 1151.71 812.459C1151.62 811.106 1151.49 810.036 1151.32 809.25L1151.51 808.726C1152.96 808.115 1154.59 807.547 1156.43 807.023C1158.3 806.499 1160.27 806.062 1162.32 805.713C1164.42 805.364 1166.49 805.189 1168.54 805.189C1170.82 805.189 1173.02 805.429 1175.16 805.91C1177.3 806.39 1179.22 807.241 1180.92 808.464C1182.67 809.643 1184.05 811.302 1185.05 813.442C1186.05 815.582 1186.56 818.289 1186.56 821.564V842H1175.03V821.957C1175.03 819.905 1174.72 818.333 1174.11 817.241C1173.5 816.149 1172.63 815.385 1171.49 814.948C1170.4 814.512 1169.13 814.293 1167.69 814.293C1166.43 814.293 1165.23 814.446 1164.09 814.752C1162.96 815.058 1161.93 815.363 1161.01 815.669L1162.65 813.114C1162.96 813.769 1163.17 814.643 1163.3 815.734C1163.44 816.782 1163.5 818.114 1163.5 819.73V842H1151.97ZM1212.96 842.524C1209.77 842.524 1206.98 842.109 1204.58 841.279C1202.22 840.406 1200.36 838.965 1199.01 836.956C1197.7 834.904 1197.04 832.153 1197.04 828.703V797.198H1208.57V827.852C1208.57 829.861 1209.05 831.302 1210.01 832.175C1211.02 833.005 1212.57 833.419 1214.66 833.419C1215.45 833.419 1216.21 833.332 1216.95 833.157C1217.7 832.983 1218.35 832.786 1218.92 832.568H1219.64V841.607C1218.68 841.913 1217.68 842.131 1216.63 842.262C1215.58 842.437 1214.36 842.524 1212.96 842.524ZM1191.21 815.079V806.171H1218V815.079H1191.21ZM1245.76 842.721C1242.57 842.721 1239.62 842.371 1236.91 841.672C1234.25 840.974 1231.96 839.904 1230.04 838.463C1228.16 836.978 1226.69 835.035 1225.65 832.633C1224.64 830.232 1224.14 827.35 1224.14 823.987C1224.14 820.057 1224.88 816.695 1226.37 813.9C1227.85 811.062 1229.97 808.901 1232.72 807.416C1235.47 805.931 1238.72 805.189 1242.48 805.189C1246.54 805.189 1249.86 806.04 1252.44 807.743C1255.01 809.446 1256.87 811.783 1258 814.752C1259.18 817.721 1259.66 821.084 1259.44 824.839L1259.38 827.197H1231.21V820.385H1248.38V820.057C1248.38 817.874 1247.87 816.193 1246.87 815.014C1245.91 813.791 1244.38 813.18 1242.28 813.18C1240.93 813.18 1239.75 813.486 1238.75 814.097C1237.79 814.708 1237.02 815.734 1236.45 817.175C1235.93 818.573 1235.67 820.494 1235.67 822.939V825.035C1235.67 827.35 1236.13 829.162 1237.04 830.472C1238 831.738 1239.31 832.655 1240.97 833.223C1242.63 833.747 1244.58 834.009 1246.8 834.009C1248.81 834.009 1250.65 833.812 1252.31 833.419C1254.01 833.026 1255.32 832.568 1256.24 832.044H1256.89V841.017C1255.58 841.541 1254.01 841.956 1252.17 842.262C1250.38 842.568 1248.24 842.721 1245.76 842.721ZM1279.35 857.72C1277.61 857.72 1275.73 857.589 1273.72 857.327C1271.75 857.065 1270.16 856.65 1268.94 856.083V846.978H1269.85C1270.99 847.502 1272.37 847.895 1273.98 848.157C1275.6 848.463 1277.08 848.616 1278.44 848.616C1280.62 848.616 1282.52 848.375 1284.13 847.895C1285.79 847.415 1287.08 846.607 1288 845.472C1288.92 844.336 1289.37 842.764 1289.37 840.755V819.468C1289.37 817.896 1289.44 816.455 1289.57 815.145C1289.7 813.835 1289.96 812.918 1290.36 812.394L1291.34 814.424C1291.08 814.424 1290.44 814.359 1289.44 814.228C1288.48 814.053 1287.41 813.966 1286.23 813.966C1284.09 813.966 1282.32 814.381 1280.92 815.21C1279.57 816.04 1278.57 817.197 1277.91 818.682C1277.3 820.167 1276.99 821.848 1276.99 823.725C1276.99 826.826 1277.74 829.206 1279.22 830.865C1280.71 832.524 1283.04 833.354 1286.23 833.354C1286.84 833.354 1287.45 833.332 1288.06 833.288C1288.72 833.201 1289.48 833.005 1290.36 832.699L1290.29 841.148C1289.11 841.367 1288.04 841.52 1287.08 841.607C1286.16 841.694 1285.29 841.738 1284.46 841.738C1280.57 841.738 1277.19 841.083 1274.31 839.773C1271.43 838.463 1269.2 836.498 1267.63 833.878C1266.06 831.214 1265.27 827.896 1265.27 823.922C1265.27 820.734 1265.82 817.961 1266.91 815.603C1268 813.245 1269.53 811.302 1271.49 809.774C1273.5 808.246 1275.84 807.11 1278.5 806.368C1281.16 805.582 1284.05 805.189 1287.15 805.189C1290.12 805.189 1292.8 805.495 1295.2 806.106C1297.6 806.717 1299.59 807.394 1301.16 808.136L1301.43 808.66C1301.25 809.446 1301.12 810.494 1301.03 811.804C1300.99 813.114 1300.95 814.446 1300.9 815.8C1300.9 817.154 1300.9 818.289 1300.9 819.206V839.314C1300.9 843.55 1299.98 847.022 1298.15 849.729C1296.36 852.436 1293.85 854.445 1290.62 855.755C1287.39 857.065 1283.63 857.72 1279.35 857.72ZM1310.86 842V818.944C1310.86 818.071 1310.84 816.957 1310.8 815.603C1310.8 814.206 1310.73 812.852 1310.6 811.542C1310.51 810.189 1310.38 809.119 1310.21 808.333L1310.4 807.809C1311.67 807.372 1313.09 806.979 1314.66 806.63C1316.28 806.281 1318.04 805.997 1319.97 805.778C1321.93 805.516 1324.07 805.385 1326.39 805.385C1327.04 805.385 1327.91 805.407 1329.01 805.451C1330.14 805.495 1331.34 805.626 1332.61 805.844V814.883H1331.89C1331.14 814.708 1330.34 814.577 1329.46 814.49C1328.63 814.359 1327.8 814.293 1326.97 814.293C1325.53 814.293 1324.18 814.424 1322.91 814.686C1321.65 814.905 1320.58 815.21 1319.7 815.603L1321.28 813.049C1322.02 814.097 1322.39 816.324 1322.39 819.73V842H1310.86ZM1353.11 842.786C1347.35 842.786 1343 841.934 1340.08 840.231C1337.15 838.485 1335.69 835.515 1335.69 831.323C1335.69 828.66 1336.35 826.498 1337.66 824.839C1339.01 823.18 1340.86 821.979 1343.22 821.236C1345.58 820.45 1348.27 820.057 1351.28 820.057C1352.76 820.057 1354.12 820.145 1355.34 820.319C1356.56 820.494 1357.72 820.712 1358.81 820.974V827.721C1358.16 827.503 1357.28 827.306 1356.19 827.131C1355.1 826.957 1354.05 826.869 1353.05 826.869C1350.73 826.869 1349.01 827.197 1347.87 827.852C1346.78 828.507 1346.24 829.599 1346.24 831.127C1346.24 832.655 1346.78 833.725 1347.87 834.336C1349.01 834.948 1350.6 835.253 1352.65 835.253C1354.01 835.253 1355.32 835.122 1356.58 834.86C1357.85 834.555 1358.92 834.053 1359.79 833.354L1358.48 836.563C1358.18 835.865 1357.94 835.232 1357.76 834.664C1357.59 834.096 1357.46 833.507 1357.37 832.895C1357.28 832.24 1357.22 831.476 1357.17 830.603C1357.17 829.686 1357.17 828.551 1357.17 827.197V820.319C1357.17 818.529 1356.87 817.154 1356.26 816.193C1355.65 815.232 1354.71 814.599 1353.44 814.293C1352.22 813.944 1350.67 813.769 1348.79 813.769C1346.91 813.769 1345.12 813.944 1343.42 814.293C1341.76 814.599 1340.41 814.992 1339.36 815.472H1338.7V806.695C1340.28 806.259 1342.02 805.909 1343.94 805.647C1345.91 805.342 1347.98 805.189 1350.17 805.189C1352.83 805.189 1355.27 805.429 1357.5 805.91C1359.73 806.39 1361.65 807.219 1363.27 808.398C1364.93 809.534 1366.19 811.128 1367.06 813.18C1367.94 815.189 1368.37 817.787 1368.37 820.974V828.9C1368.37 829.817 1368.4 830.952 1368.44 832.306C1368.48 833.66 1368.55 834.991 1368.64 836.301C1368.72 837.611 1368.88 838.659 1369.1 839.445L1368.83 839.969C1367.31 840.537 1365.69 841.039 1363.99 841.476C1362.28 841.869 1360.51 842.175 1358.68 842.393C1356.85 842.655 1354.99 842.786 1353.11 842.786ZM1394.56 842.524C1391.37 842.524 1388.57 842.109 1386.17 841.279C1383.81 840.406 1381.96 838.965 1380.6 836.956C1379.29 834.904 1378.64 832.153 1378.64 828.703V797.198H1390.17V827.852C1390.17 829.861 1390.65 831.302 1391.61 832.175C1392.61 833.005 1394.16 833.419 1396.26 833.419C1397.04 833.419 1397.81 833.332 1398.55 833.157C1399.29 832.983 1399.95 832.786 1400.52 832.568H1401.24V841.607C1400.28 841.913 1399.27 842.131 1398.22 842.262C1397.18 842.437 1395.95 842.524 1394.56 842.524ZM1372.81 815.079V806.171H1399.6V815.079H1372.81ZM1413.4 800.997C1411.61 800.997 1410.15 800.495 1409.02 799.49C1407.88 798.442 1407.31 796.958 1407.31 795.036C1407.31 793.115 1407.88 791.652 1409.02 790.648C1410.15 789.6 1411.61 789.076 1413.4 789.076C1415.24 789.076 1416.72 789.6 1417.86 790.648C1418.99 791.652 1419.56 793.115 1419.56 795.036C1419.56 796.958 1418.99 798.442 1417.86 799.49C1416.72 800.495 1415.24 800.997 1413.4 800.997ZM1407.64 842V817.11C1407.64 816.237 1407.62 815.123 1407.58 813.769C1407.58 812.416 1407.51 811.106 1407.38 809.839C1407.29 808.529 1407.16 807.481 1406.99 806.695L1407.18 806.171H1419.17V842H1407.64ZM1426.72 823.987C1426.72 819.752 1427.5 816.258 1429.07 813.507C1430.65 810.713 1432.81 808.639 1435.56 807.285C1438.35 805.888 1441.56 805.189 1445.19 805.189C1448.77 805.189 1451.96 805.888 1454.75 807.285C1457.55 808.639 1459.73 810.713 1461.3 813.507C1462.87 816.258 1463.66 819.752 1463.66 823.987C1463.66 828.179 1462.87 831.673 1461.3 834.467C1459.73 837.218 1457.55 839.293 1454.75 840.69C1451.96 842.044 1448.77 842.721 1445.19 842.721C1441.56 842.721 1438.35 842.044 1435.56 840.69C1432.76 839.293 1430.58 837.218 1429.01 834.467C1427.48 831.673 1426.72 828.179 1426.72 823.987ZM1438.44 823.987C1438.44 827.393 1438.99 829.97 1440.08 831.716C1441.21 833.463 1442.92 834.336 1445.19 834.336C1447.46 834.336 1449.14 833.463 1450.23 831.716C1451.37 829.97 1451.93 827.393 1451.93 823.987C1451.93 820.538 1451.37 817.94 1450.23 816.193C1449.14 814.446 1447.46 813.573 1445.19 813.573C1442.92 813.573 1441.21 814.446 1440.08 816.193C1438.99 817.94 1438.44 820.538 1438.44 823.987ZM1471.54 842V819.861C1471.54 818.988 1471.52 817.874 1471.48 816.52C1471.48 815.123 1471.41 813.769 1471.28 812.459C1471.19 811.106 1471.06 810.036 1470.89 809.25L1471.08 808.726C1472.52 808.115 1474.16 807.547 1476 807.023C1477.87 806.499 1479.84 806.062 1481.89 805.713C1483.99 805.364 1486.06 805.189 1488.11 805.189C1490.38 805.189 1492.59 805.429 1494.73 805.91C1496.87 806.39 1498.79 807.241 1500.49 808.464C1502.24 809.643 1503.61 811.302 1504.62 813.442C1505.62 815.582 1506.13 818.289 1506.13 821.564V842H1494.6V821.957C1494.6 819.905 1494.29 818.333 1493.68 817.241C1493.07 816.149 1492.2 815.385 1491.06 814.948C1489.97 814.512 1488.7 814.293 1487.26 814.293C1486 814.293 1484.79 814.446 1483.66 814.752C1482.52 815.058 1481.5 815.363 1480.58 815.669L1482.22 813.114C1482.52 813.769 1482.74 814.643 1482.87 815.734C1483 816.782 1483.07 818.114 1483.07 819.73V842H1471.54ZM1527.49 794.84H1566.52V804.927H1552.77V842H1541.18V804.927H1527.49V794.84ZM1588.22 842.721C1585.04 842.721 1582.09 842.371 1579.38 841.672C1576.72 840.974 1574.42 839.904 1572.5 838.463C1570.63 836.978 1569.16 835.035 1568.11 832.633C1567.11 830.232 1566.61 827.35 1566.61 823.987C1566.61 820.057 1567.35 816.695 1568.84 813.9C1570.32 811.062 1572.44 808.901 1575.19 807.416C1577.94 805.931 1581.19 805.189 1584.95 805.189C1589.01 805.189 1592.33 806.04 1594.9 807.743C1597.48 809.446 1599.34 811.783 1600.47 814.752C1601.65 817.721 1602.13 821.084 1601.91 824.839L1601.85 827.197H1573.68V820.385H1590.84V820.057C1590.84 817.874 1590.34 816.193 1589.34 815.014C1588.38 813.791 1586.85 813.18 1584.75 813.18C1583.4 813.18 1582.22 813.486 1581.21 814.097C1580.25 814.708 1579.49 815.734 1578.92 817.175C1578.4 818.573 1578.14 820.494 1578.14 822.939V825.035C1578.14 827.35 1578.59 829.162 1579.51 830.472C1580.47 831.738 1581.78 832.655 1583.44 833.223C1585.1 833.747 1587.04 834.009 1589.27 834.009C1591.28 834.009 1593.11 833.812 1594.77 833.419C1596.48 833.026 1597.79 832.568 1598.7 832.044H1599.36V841.017C1598.05 841.541 1596.48 841.956 1594.64 842.262C1592.85 842.568 1590.71 842.721 1588.22 842.721ZM1607.74 823.987C1607.74 819.621 1608.63 816.062 1610.42 813.311C1612.21 810.516 1614.66 808.464 1617.76 807.154C1620.9 805.844 1624.48 805.189 1628.5 805.189C1631.56 805.189 1634.2 805.582 1636.43 806.368V815.538H1635.71C1634.96 815.189 1634.11 814.905 1633.15 814.686C1632.19 814.424 1631.06 814.293 1629.75 814.293C1626.47 814.293 1623.94 815.123 1622.15 816.782C1620.36 818.398 1619.46 820.8 1619.46 823.987C1619.46 827.131 1620.36 829.533 1622.15 831.192C1623.94 832.808 1626.47 833.616 1629.75 833.616C1631.06 833.616 1632.19 833.507 1633.15 833.288C1634.11 833.026 1634.96 832.743 1635.71 832.437H1636.43V841.541C1634.2 842.328 1631.56 842.721 1628.5 842.721C1624.4 842.721 1620.77 842.066 1617.63 840.755C1614.53 839.445 1612.1 837.415 1610.36 834.664C1608.61 831.869 1607.74 828.31 1607.74 823.987ZM1644.18 842V803.093C1644.18 802.22 1644.16 801.128 1644.12 799.818C1644.12 798.464 1644.05 797.154 1643.92 795.888C1643.83 794.578 1643.7 793.53 1643.53 792.744L1643.72 792.22H1655.71V810.953L1653.29 807.154C1654.6 806.586 1655.99 806.128 1657.48 805.778C1659.01 805.385 1660.82 805.189 1662.92 805.189C1665.27 805.189 1667.44 805.516 1669.4 806.171C1671.37 806.783 1673.02 807.743 1674.38 809.053C1675.78 810.363 1676.85 812.066 1677.59 814.162C1678.37 816.215 1678.77 818.682 1678.77 821.564V842H1667.24V821.826C1667.24 819.905 1666.93 818.42 1666.32 817.372C1665.71 816.28 1664.86 815.516 1663.77 815.079C1662.68 814.599 1661.39 814.359 1659.9 814.359C1659.2 814.359 1658.4 814.446 1657.48 814.621C1656.56 814.796 1655.73 814.948 1654.99 815.079C1654.29 815.21 1653.81 815.298 1653.55 815.341L1655.71 810.363V842H1644.18ZM1688.45 842V819.861C1688.45 818.988 1688.42 817.874 1688.38 816.52C1688.38 815.123 1688.32 813.769 1688.18 812.459C1688.1 811.106 1687.97 810.036 1687.79 809.25L1687.99 808.726C1689.43 808.115 1691.07 807.547 1692.9 807.023C1694.78 806.499 1696.74 806.062 1698.8 805.713C1700.89 805.364 1702.97 805.189 1705.02 805.189C1707.29 805.189 1709.49 805.429 1711.63 805.91C1713.77 806.39 1715.69 807.241 1717.4 808.464C1719.14 809.643 1720.52 811.302 1721.52 813.442C1722.53 815.582 1723.03 818.289 1723.03 821.564V842H1711.5V821.957C1711.5 819.905 1711.2 818.333 1710.59 817.241C1709.97 816.149 1709.1 815.385 1707.97 814.948C1706.87 814.512 1705.61 814.293 1704.17 814.293C1702.9 814.293 1701.7 814.446 1700.56 814.752C1699.43 815.058 1698.4 815.363 1697.49 815.669L1699.12 813.114C1699.43 813.769 1699.65 814.643 1699.78 815.734C1699.91 816.782 1699.97 818.114 1699.97 819.73V842H1688.45ZM1730.42 823.987C1730.42 819.752 1731.21 816.258 1732.78 813.507C1734.35 810.713 1736.51 808.639 1739.26 807.285C1742.06 805.888 1745.27 805.189 1748.89 805.189C1752.47 805.189 1755.66 805.888 1758.46 807.285C1761.25 808.639 1763.43 810.713 1765.01 813.507C1766.58 816.258 1767.36 819.752 1767.36 823.987C1767.36 828.179 1766.58 831.673 1765.01 834.467C1763.43 837.218 1761.25 839.293 1758.46 840.69C1755.66 842.044 1752.47 842.721 1748.89 842.721C1745.27 842.721 1742.06 842.044 1739.26 840.69C1736.47 839.293 1734.29 837.218 1732.71 834.467C1731.19 831.673 1730.42 828.179 1730.42 823.987ZM1742.15 823.987C1742.15 827.393 1742.69 829.97 1743.78 831.716C1744.92 833.463 1746.62 834.336 1748.89 834.336C1751.16 834.336 1752.84 833.463 1753.94 831.716C1755.07 829.97 1755.64 827.393 1755.64 823.987C1755.64 820.538 1755.07 817.94 1753.94 816.193C1752.84 814.446 1751.16 813.573 1748.89 813.573C1746.62 813.573 1744.92 814.446 1743.78 816.193C1742.69 817.94 1742.15 820.538 1742.15 823.987ZM1775.05 842V803.158C1775.05 802.241 1775.03 801.128 1774.99 799.818C1774.99 798.464 1774.92 797.154 1774.79 795.888C1774.71 794.578 1774.57 793.53 1774.4 792.744L1774.6 792.22H1786.58V842H1775.05ZM1794.13 823.987C1794.13 819.752 1794.92 816.258 1796.49 813.507C1798.06 810.713 1800.22 808.639 1802.97 807.285C1805.77 805.888 1808.98 805.189 1812.6 805.189C1816.18 805.189 1819.37 805.888 1822.17 807.285C1824.96 808.639 1827.14 810.713 1828.72 813.507C1830.29 816.258 1831.07 819.752 1831.07 823.987C1831.07 828.179 1830.29 831.673 1828.72 834.467C1827.14 837.218 1824.96 839.293 1822.17 840.69C1819.37 842.044 1816.18 842.721 1812.6 842.721C1808.98 842.721 1805.77 842.044 1802.97 840.69C1800.18 839.293 1798 837.218 1796.42 834.467C1794.9 831.673 1794.13 828.179 1794.13 823.987ZM1805.86 823.987C1805.86 827.393 1806.4 829.97 1807.49 831.716C1808.63 833.463 1810.33 834.336 1812.6 834.336C1814.87 834.336 1816.55 833.463 1817.65 831.716C1818.78 829.97 1819.35 827.393 1819.35 823.987C1819.35 820.538 1818.78 817.94 1817.65 816.193C1816.55 814.446 1814.87 813.573 1812.6 813.573C1810.33 813.573 1808.63 814.446 1807.49 816.193C1806.4 817.94 1805.86 820.538 1805.86 823.987ZM1851.2 857.72C1849.45 857.72 1847.57 857.589 1845.56 857.327C1843.6 857.065 1842.01 856.65 1840.78 856.083V846.978H1841.7C1842.84 847.502 1844.21 847.895 1845.83 848.157C1847.44 848.463 1848.93 848.616 1850.28 848.616C1852.46 848.616 1854.36 848.375 1855.98 847.895C1857.64 847.415 1858.93 846.607 1859.84 845.472C1860.76 844.336 1861.22 842.764 1861.22 840.755V819.468C1861.22 817.896 1861.28 816.455 1861.42 815.145C1861.55 813.835 1861.81 812.918 1862.2 812.394L1863.18 814.424C1862.92 814.424 1862.29 814.359 1861.28 814.228C1860.32 814.053 1859.25 813.966 1858.08 813.966C1855.94 813.966 1854.17 814.381 1852.77 815.21C1851.42 816.04 1850.41 817.197 1849.76 818.682C1849.15 820.167 1848.84 821.848 1848.84 823.725C1848.84 826.826 1849.58 829.206 1851.07 830.865C1852.55 832.524 1854.89 833.354 1858.08 833.354C1858.69 833.354 1859.3 833.332 1859.91 833.288C1860.56 833.201 1861.33 833.005 1862.2 832.699L1862.14 841.148C1860.96 841.367 1859.89 841.52 1858.93 841.607C1858.01 841.694 1857.14 841.738 1856.31 841.738C1852.42 841.738 1849.04 841.083 1846.15 839.773C1843.27 838.463 1841.05 836.498 1839.47 833.878C1837.9 831.214 1837.12 827.896 1837.12 823.922C1837.12 820.734 1837.66 817.961 1838.75 815.603C1839.84 813.245 1841.37 811.302 1843.34 809.774C1845.35 808.246 1847.68 807.11 1850.35 806.368C1853.01 805.582 1855.89 805.189 1858.99 805.189C1861.96 805.189 1864.65 805.495 1867.05 806.106C1869.45 806.717 1871.44 807.394 1873.01 808.136L1873.27 808.66C1873.1 809.446 1872.97 810.494 1872.88 811.804C1872.83 813.114 1872.79 814.446 1872.75 815.8C1872.75 817.154 1872.75 818.289 1872.75 819.206V839.314C1872.75 843.55 1871.83 847.022 1870 849.729C1868.21 852.436 1865.7 854.445 1862.46 855.755C1859.23 857.065 1855.48 857.72 1851.2 857.72ZM1885.85 857.196V856.41L1894.89 835.057L1904.91 806.171H1916.64V806.957L1897.44 857.196H1885.85ZM1892.2 845.668L1877.99 806.957V806.171H1890.31L1898.36 833.419L1892.2 845.668Z" fill="white"/>
<path d="M1205.59 646.849H1222.28V721H1205.59V689.542H1177.56V721H1160.87V646.849H1177.56V675.204H1205.59V646.849ZM1308.99 721V646.849H1359.07V660.866H1325.69V675.418H1355.33V689.114H1325.69V706.983H1361.53V721H1308.99ZM1493.08 721C1492.3 718.432 1491.41 715.793 1490.41 713.082C1489.48 710.371 1488.55 707.661 1487.63 704.95H1458.74C1457.81 707.661 1456.85 710.371 1455.85 713.082C1454.92 715.793 1454.06 718.432 1453.28 721H1435.94C1438.73 713.011 1441.37 705.628 1443.86 698.851C1446.36 692.074 1448.78 685.69 1451.14 679.698C1453.56 673.706 1455.92 668.035 1458.2 662.685C1460.55 657.264 1462.98 651.985 1465.48 646.849H1481.42C1483.84 651.985 1486.23 657.264 1488.59 662.685C1490.94 668.035 1493.3 673.706 1495.65 679.698C1498.08 685.69 1500.54 692.074 1503.03 698.851C1505.53 705.628 1508.17 713.011 1510.95 721H1493.08ZM1473.07 663.648C1472.72 664.718 1472.18 666.18 1471.47 668.035C1470.76 669.89 1469.93 672.03 1469.01 674.455C1468.08 676.88 1467.05 679.555 1465.9 682.48C1464.83 685.405 1463.73 688.472 1462.59 691.682H1483.67C1482.53 688.472 1481.42 685.405 1480.35 682.48C1479.28 679.555 1478.25 676.88 1477.25 674.455C1476.32 672.03 1475.5 669.89 1474.79 668.035C1474.07 666.18 1473.5 664.718 1473.07 663.648ZM1639.64 706.662V721H1590.1V646.849H1606.79V706.662H1639.64ZM1766.58 646.849V661.08H1744.22V721H1727.53V661.08H1705.16V646.849H1766.58ZM1891.58 646.849H1908.28V721H1891.58V689.542H1863.55V721H1846.86V646.849H1863.55V675.204H1891.58V646.849Z" fill="white"/>
<path d="M42.9755 551.4C28.8755 547.6 13.4756 535.6 7.07555 523.3C0.77555 511.3 -1.42446 497.4 0.975544 484.4C3.57554 470 0.875534 473.5 132.376 311C199.876 227.7 257.376 157.1 260.176 154.2C286.176 127.4 331.476 132.9 350.376 165.1C356.476 175.6 358.176 182 358.176 194.5C358.176 207.4 355.676 216.1 349.176 225.7C342.276 236 100.276 534.5 94.8755 539.3C88.9755 544.6 77.9756 550.2 70.0756 551.9C62.8756 553.4 49.5755 553.2 42.9755 551.4Z" fill="#CAB164"/>
<path d="M285.375 551.1C276.375 548.6 269.275 544.3 261.275 536.7C247.575 523.8 241.175 505.6 243.875 487.3C246.275 471.1 245.775 471.9 320.775 379C358.275 332.5 391.875 291.8 395.375 288.4C406.875 277.4 424.375 271.1 438.875 272.6C457.175 274.5 472.475 283.1 481.875 297C494.175 315.1 495.775 336.8 486.175 355.6C483.275 361.3 465.875 383.5 413.875 447.8C376.175 494.4 342.875 534.9 339.875 537.8C333.775 543.8 321.675 550.1 313.075 551.9C305.375 553.5 292.275 553.1 285.375 551.1Z" fill="#CAB164"/>
<path d="M42.7757 250.6C19.3757 244.1 2.07572 223.2 0.175724 198.9C-2.42428 166 24.1757 137 56.8757 137C78.9757 137 99.5758 149.7 109.076 169C113.776 178.5 114.776 183.3 114.876 194.5C114.876 211.1 109.876 223.2 97.9757 235.1C89.6757 243.4 80.0758 248.8 70.0758 250.9C63.1758 252.3 48.5757 252.2 42.7757 250.6Z" fill="#CAB164"/>
<path d="M529.475 250.5C514.775 246.5 499.275 233.8 493.175 221C477.575 188.3 492.475 151.7 526.075 139.8C533.675 137.1 551.275 136.6 559.375 138.9C583.175 145.5 600.175 166.3 601.575 190.5C602.275 202.1 600.775 209.5 595.875 219.9C588.475 235.3 573.075 247.6 557.075 250.9C549.975 252.4 535.575 252.1 529.475 250.5Z" fill="#CAB164"/>
<path fill-rule="evenodd" clip-rule="evenodd" d="M2312.88 908.513C2244.18 904.113 2208.48 898.713 2175.38 887.413C2125.18 870.313 2091.08 840.313 2068.88 793.913C2052.28 759.113 2041.68 714.913 2036.38 657.613C2033.58 627.313 2031.18 614.113 2016.38 547.113C1994.28 447.213 1987.68 400.513 1986.18 335.613C1985.38 298.713 1987.68 260.013 1992.48 227.813C1998.28 188.513 2013.28 149.513 2035.38 116.113C2060.88 77.4128 2091.88 49.9128 2132.78 29.6128C2157.38 17.4128 2165.28 15.2127 2208.08 9.21275C2278.48 -0.787253 2343.18 -2.68725 2393.38 3.71275C2416.78 6.71275 2443.08 12.5128 2461.38 18.8128C2475.58 23.6128 2496.18 34.1128 2504.38 40.5128C2507.2 42.6874 2511.76 46.2281 2515.93 49.4591C2517.51 50.6855 2519.03 51.8672 2520.38 52.9128C2537.98 66.4128 2553.28 81.2128 2566.28 97.3128C2572.28 104.813 2582.48 122.413 2585.78 131.213C2591.78 147.013 2592.18 152.013 2591.48 206.613C2588.98 405.713 2589.48 438.213 2597.38 586.613C2602.38 680.213 2599.48 731.413 2587.48 763.513C2579.18 785.413 2557.98 816.513 2538.98 834.413C2516.88 855.213 2487.38 873.413 2456.18 885.513C2428.78 896.113 2394.38 904.013 2361.88 907.013C2349.88 908.113 2321.08 909.013 2312.88 908.513ZM2457.38 272.863V591.863C2457.38 616.301 2437.56 636.113 2413.13 636.113C2388.69 636.113 2368.88 616.301 2368.88 591.863V522.363C2368.88 491.573 2343.92 466.613 2313.13 466.613C2282.34 466.613 2257.38 491.573 2257.38 522.363V608.696C2257.38 625.492 2247.87 640.841 2232.83 648.319C2203.41 662.944 2168.88 641.547 2168.88 608.696V272.863C2168.88 248.424 2188.69 228.613 2213.13 228.613C2237.56 228.613 2257.38 248.424 2257.38 272.863V322.363C2257.38 353.153 2282.34 378.113 2313.13 378.113C2343.92 378.113 2368.88 353.153 2368.88 322.363V272.863C2368.88 248.424 2388.69 228.613 2413.13 228.613C2437.56 228.613 2457.38 248.424 2457.38 272.863Z" fill="#CAB164"/>
</svg>
