<svg width="2677" height="909" viewBox="0 0 2677 909" fill="none" xmlns="http://www.w3.org/2000/svg">
<path d="M2633.76 551.4C2647.86 547.6 2663.26 535.6 2669.66 523.3C2675.96 511.3 2678.16 497.4 2675.76 484.4C2673.16 470 2675.86 473.5 2544.36 311C2476.86 227.7 2419.36 157.1 2416.56 154.2C2390.56 127.4 2345.26 132.9 2326.36 165.1C2320.26 175.6 2318.56 182 2318.56 194.5C2318.56 207.4 2321.06 216.1 2327.56 225.7C2334.46 236 2576.46 534.5 2581.86 539.3C2587.76 544.6 2598.76 550.2 2606.66 551.9C2613.86 553.4 2627.16 553.2 2633.76 551.4Z" fill="#CAB164"/>
<path d="M2391.36 551.1C2400.36 548.6 2407.46 544.3 2415.46 536.7C2429.16 523.8 2435.56 505.6 2432.86 487.3C2430.46 471.1 2430.96 471.9 2355.96 379C2318.46 332.5 2284.86 291.8 2281.36 288.4C2269.86 277.4 2252.36 271.1 2237.86 272.6C2219.56 274.5 2204.26 283.1 2194.86 297C2182.56 315.1 2180.96 336.8 2190.56 355.6C2193.46 361.3 2210.86 383.5 2262.86 447.8C2300.56 494.4 2333.86 534.9 2336.86 537.8C2342.96 543.8 2355.06 550.1 2363.66 551.9C2371.36 553.5 2384.46 553.1 2391.36 551.1Z" fill="#CAB164"/>
<path d="M2633.96 250.6C2657.36 244.1 2674.66 223.2 2676.56 198.9C2679.16 166 2652.56 137 2619.86 137C2597.76 137 2577.16 149.7 2567.66 169C2562.96 178.5 2561.96 183.3 2561.86 194.5C2561.86 211.1 2566.86 223.2 2578.76 235.1C2587.06 243.4 2596.66 248.8 2606.66 250.9C2613.56 252.3 2628.16 252.2 2633.96 250.6Z" fill="#CAB164"/>
<path d="M2147.26 250.5C2161.96 246.5 2177.46 233.8 2183.56 221C2199.16 188.3 2184.26 151.7 2150.66 139.8C2143.06 137.1 2125.46 136.6 2117.36 138.9C2093.56 145.5 2076.56 166.3 2075.16 190.5C2074.46 202.1 2075.96 209.5 2080.86 219.9C2088.26 235.3 2103.66 247.6 2119.66 250.9C2126.76 252.4 2141.16 252.1 2147.26 250.5Z" fill="#CAB164"/>
<path fill-rule="evenodd" clip-rule="evenodd" d="M424.337 887.413C391.237 898.713 355.537 904.113 286.837 908.513C278.637 909.013 249.837 908.113 237.837 907.013C205.337 904.013 170.937 896.113 143.537 885.513C112.337 873.413 82.8367 855.213 60.7367 834.413C41.7367 816.513 20.5367 785.413 12.2367 763.513C0.236694 731.413 -2.66321 680.213 2.33679 586.613C10.2368 438.213 10.7367 405.713 8.23669 206.613C7.53668 152.013 7.93689 147.013 13.9369 131.213C17.2369 122.413 27.4369 104.813 33.4369 97.3128C46.4369 81.2128 61.7368 66.4128 79.3368 52.9128C80.6849 51.8672 82.2072 50.6855 83.7869 49.4591C87.9489 46.2281 92.5098 42.6874 95.3368 40.5128C103.537 34.1128 124.137 23.6128 138.337 18.8128C156.637 12.5128 182.937 6.71275 206.337 3.71275C256.537 -2.68725 321.237 -0.787253 391.637 9.21275C434.437 15.2127 442.337 17.4128 466.937 29.6128C507.837 49.9128 538.837 77.4128 564.337 116.113C586.437 149.513 601.437 188.513 607.237 227.813C612.037 260.013 614.337 298.713 613.537 335.613C612.037 400.513 605.437 447.213 583.337 547.113C568.537 614.113 566.137 627.313 563.337 657.613C558.037 714.913 547.437 759.113 530.837 793.913C508.637 840.313 474.537 870.313 424.337 887.413Z" fill="#4179AD"/>
<path d="M230.837 272.863C230.837 248.424 211.026 228.613 186.587 228.613C162.148 228.613 142.337 248.424 142.337 272.863V591.863C142.337 616.301 162.148 636.113 186.587 636.113C211.026 636.113 230.837 616.301 230.837 591.863V522.363C230.837 491.573 255.797 466.613 286.587 466.613C317.377 466.613 342.337 491.573 342.337 522.363V608.696C342.337 625.492 351.847 640.841 366.887 648.319C396.303 662.944 430.837 641.547 430.837 608.696V272.863C430.837 248.424 411.026 228.613 386.587 228.613C362.148 228.613 342.337 248.424 342.337 272.863V322.363C342.337 353.153 317.377 378.113 286.587 378.113C255.797 378.113 230.837 353.153 230.837 322.363V272.863Z" fill="white"/>
<path d="M730.312 826.447L729.859 834.978C729.255 835.884 728.298 836.891 726.99 837.998C725.731 839.106 724.146 840.062 722.233 840.867C720.32 841.622 718.131 842 715.665 842C712.997 842 710.556 841.396 708.341 840.188C706.177 838.98 704.415 837.294 703.056 835.129C701.747 832.915 701.093 830.323 701.093 827.353C701.093 825.289 701.37 823.377 701.924 821.615C702.528 819.853 703.509 818.192 704.868 816.632C706.277 815.021 708.19 813.461 710.606 811.951C713.022 810.391 716.042 808.83 719.666 807.27C723.34 805.71 727.719 804.074 732.803 802.362L729.708 813.31C727.493 814.115 725.303 814.971 723.139 815.877C721.025 816.733 718.936 817.739 716.873 818.897C714.859 820.004 712.846 821.313 710.833 822.823L715.514 817.613C714.809 818.67 714.28 819.853 713.928 821.162C713.626 822.42 713.475 823.704 713.475 825.012C713.475 827.126 714.054 828.737 715.212 829.844C716.42 830.901 717.955 831.43 719.817 831.43C721.528 831.43 723.215 831.002 724.876 830.146C726.587 829.291 728.399 828.058 730.312 826.447ZM747.903 842H728.424V831.581L726.461 834.676V799.72L738.919 798.361H739.749V836.186L734.313 830.75H749.413V840.49L747.903 842ZM727.82 794.133C729.531 794.133 730.966 793.604 732.124 792.547C733.281 791.49 733.86 790.031 733.86 788.168C733.86 786.256 733.281 784.796 732.124 783.789C730.966 782.732 729.531 782.204 727.82 782.204C726.209 782.204 724.8 782.732 723.592 783.789C722.434 784.796 721.856 786.256 721.856 788.168C721.856 790.031 722.434 791.49 723.592 792.547C724.8 793.604 726.209 794.133 727.82 794.133ZM714.155 795.718C715.816 795.718 717.225 795.19 718.383 794.133C719.54 793.076 720.119 791.616 720.119 789.754C720.119 787.841 719.54 786.356 718.383 785.299C717.225 784.242 715.816 783.714 714.155 783.714C712.494 783.714 711.084 784.242 709.927 785.299C708.769 786.356 708.19 787.841 708.19 789.754C708.19 791.616 708.769 793.076 709.927 794.133C711.084 795.19 712.494 795.718 714.155 795.718ZM747.904 830.75H762.098L757.644 832.789C757.04 832.185 756.612 831.178 756.36 829.769C756.159 828.309 756.058 826.522 756.058 824.408V802.966L768.516 801.607H769.346V836.186L763.986 830.75H779.086V840.49L777.576 842H746.394V832.26L747.904 830.75ZM760.513 853.174C760.513 851.261 761.092 849.777 762.249 848.72C763.457 847.713 764.892 847.21 766.553 847.21C768.214 847.21 769.623 847.713 770.781 848.72C771.938 849.777 772.517 851.261 772.517 853.174C772.517 855.036 771.938 856.496 770.781 857.553C769.623 858.61 768.214 859.139 766.553 859.139C764.892 859.139 763.457 858.61 762.249 857.553C761.092 856.496 760.513 855.036 760.513 853.174ZM746.847 854.684C746.847 852.822 747.426 851.362 748.584 850.305C749.741 849.298 751.176 848.795 752.887 848.795C754.548 848.795 755.932 849.298 757.04 850.305C758.197 851.362 758.776 852.822 758.776 854.684C758.776 856.597 758.197 858.082 757.04 859.139C755.932 860.196 754.523 860.724 752.812 860.724C751.151 860.724 749.741 860.196 748.584 859.139C747.426 858.082 746.847 856.597 746.847 854.684ZM777.582 842V832.26L779.092 830.75H816.238L813.445 832.336C810.676 830.876 807.732 828.938 804.611 826.522C801.491 824.056 798.294 821.237 795.023 818.066C791.801 814.845 788.58 811.397 785.359 807.723L792.909 797.681H793.739C799.88 804.225 805.215 809.636 809.745 813.914C814.275 818.192 818.126 821.565 821.297 824.031C824.468 826.497 827.085 828.234 829.149 829.24C831.212 830.247 832.823 830.75 833.981 830.75H836.019V840.49L834.509 842H777.582ZM897.505 842V830.75H929.064V840.49L927.554 842H897.505ZM853.941 830.75H899.619C902.79 830.75 905.004 830.297 906.263 829.391C907.521 828.485 908.15 827.126 908.15 825.314C908.15 823.804 907.798 822.37 907.093 821.011C906.439 819.602 905.659 818.444 904.753 817.538L910.264 817.991C908.15 818.494 906.338 818.872 904.828 819.123C903.318 819.375 901.909 819.551 900.6 819.652C899.342 819.753 897.932 819.803 896.372 819.803H854.621L858.924 808.553H898.637C901.003 808.553 903.318 808.503 905.583 808.402C907.898 808.251 909.811 808 911.321 807.647H912.227C913.485 808.805 914.744 810.265 916.002 812.026C917.311 813.738 918.418 815.625 919.324 817.689C920.23 819.753 920.683 821.841 920.683 823.955C920.683 826.271 920.18 828.46 919.173 830.524C918.217 832.588 916.531 834.45 914.115 836.111L911.774 840.263C910.415 840.817 908.855 841.245 907.093 841.547C905.331 841.849 903.343 842 901.129 842H853.941V830.75ZM834.538 830.75H848.505L844.051 832.789C843.497 832.185 843.094 831.178 842.843 829.769C842.591 828.309 842.465 826.522 842.465 824.408V807.27L854.998 805.911H855.753V836.262L850.393 830.75H865.719V840.49L864.209 842H833.028V832.26L834.538 830.75ZM927.55 842V832.26L929.06 830.75H943.028L938.649 832.789C938.045 832.185 937.617 831.178 937.365 829.769C937.164 828.309 937.063 826.522 937.063 824.408V785.903L949.521 784.544H950.351V827.957C950.351 828.964 950.351 830.222 950.351 831.732C950.401 833.192 950.452 834.651 950.502 836.111C950.603 837.52 950.754 838.678 950.955 839.584V840.188C949.445 840.792 947.608 841.245 945.444 841.547C943.279 841.849 940.612 842 937.441 842H927.55ZM962.305 785.979L975.97 784.62L976.197 785.224C975.995 786.13 975.844 787.262 975.744 788.621C975.693 789.98 975.643 791.365 975.593 792.774C975.593 794.183 975.593 795.391 975.593 796.398V842H962.305V785.979ZM1032.09 826.447L1031.64 834.978C1031.03 835.884 1030.08 836.891 1028.77 837.998C1027.51 839.106 1025.92 840.062 1024.01 840.867C1022.1 841.622 1019.91 842 1017.44 842C1014.78 842 1012.33 841.396 1010.12 840.188C1007.96 838.98 1006.19 837.294 1004.83 835.129C1003.53 832.915 1002.87 830.323 1002.87 827.353C1002.87 825.289 1003.15 823.377 1003.7 821.615C1004.31 819.853 1005.29 818.192 1006.65 816.632C1008.06 815.021 1009.97 813.461 1012.38 811.951C1014.8 810.391 1017.82 808.83 1021.44 807.27C1025.12 805.71 1029.5 804.074 1034.58 802.362L1031.49 813.31C1029.27 814.115 1027.08 814.971 1024.92 815.877C1022.8 816.733 1020.72 817.739 1018.65 818.897C1016.64 820.004 1014.62 821.313 1012.61 822.823L1017.29 817.613C1016.59 818.67 1016.06 819.853 1015.71 821.162C1015.4 822.42 1015.25 823.704 1015.25 825.012C1015.25 827.126 1015.83 828.737 1016.99 829.844C1018.2 830.901 1019.73 831.43 1021.6 831.43C1023.31 831.43 1024.99 831.002 1026.65 830.146C1028.37 829.291 1030.18 828.058 1032.09 826.447ZM1049.68 842H1030.2V831.581L1028.24 834.676V799.72L1040.7 798.361H1041.53V836.186L1036.09 830.75H1051.19V840.49L1049.68 842ZM1029.6 794.133C1031.31 794.133 1032.74 793.604 1033.9 792.547C1035.06 791.49 1035.64 790.031 1035.64 788.168C1035.64 786.256 1035.06 784.796 1033.9 783.789C1032.74 782.732 1031.31 782.204 1029.6 782.204C1027.99 782.204 1026.58 782.732 1025.37 783.789C1024.21 784.796 1023.63 786.256 1023.63 788.168C1023.63 790.031 1024.21 791.49 1025.37 792.547C1026.58 793.604 1027.99 794.133 1029.6 794.133ZM1015.93 795.718C1017.59 795.718 1019 795.19 1020.16 794.133C1021.32 793.076 1021.9 791.616 1021.9 789.754C1021.9 787.841 1021.32 786.356 1020.16 785.299C1019 784.242 1017.59 783.714 1015.93 783.714C1014.27 783.714 1012.86 784.242 1011.71 785.299C1010.55 786.356 1009.97 787.841 1009.97 789.754C1009.97 791.616 1010.55 793.076 1011.71 794.133C1012.86 795.19 1014.27 795.718 1015.93 795.718ZM1075.73 803.797C1080.46 803.797 1084.54 804.678 1087.96 806.439C1091.38 808.201 1094 810.592 1095.81 813.612C1097.68 816.582 1098.61 819.954 1098.61 823.729C1098.61 827.554 1097.73 831.002 1095.96 834.072C1094.25 837.092 1091.81 839.508 1088.64 841.32C1085.52 843.082 1081.87 843.963 1077.69 843.963C1074.98 843.963 1072.31 843.56 1069.69 842.755C1067.12 842 1064.68 840.817 1062.37 839.206C1060.1 837.545 1058.01 835.431 1056.1 832.864L1065.92 825.39C1067.48 826.85 1069.26 828.158 1071.28 829.316C1073.29 830.423 1075.38 831.304 1077.54 831.958C1079.71 832.613 1081.8 832.965 1083.81 833.015C1084.72 833.066 1085.39 833.091 1085.85 833.091C1086.35 833.041 1086.75 833.015 1087.06 833.015L1080.71 836.715C1082.17 835.104 1083.36 833.368 1084.26 831.505C1085.22 829.593 1085.7 827.479 1085.7 825.163C1085.7 822.949 1085.02 821.061 1083.66 819.501C1082.35 817.941 1080.56 816.783 1078.3 816.028C1076.03 815.223 1073.47 814.87 1070.6 814.971L1073.09 812.63C1072.74 817.16 1072.11 821.263 1071.2 824.937C1070.34 828.561 1069.01 831.631 1067.2 834.148C1065.39 836.665 1062.95 838.602 1059.88 839.961C1056.81 841.32 1052.9 842 1048.17 842V832.26L1049.68 830.75C1052.55 830.75 1054.74 829.92 1056.25 828.259C1057.76 826.598 1058.92 824.006 1059.72 820.482C1060.58 816.959 1061.31 812.454 1061.91 806.968L1062.97 805.986C1064.83 805.382 1066.87 804.879 1069.09 804.476C1071.3 804.023 1073.52 803.797 1075.73 803.797ZM1107.14 824.71C1107.14 821.791 1107.67 819.048 1108.73 816.481C1109.83 813.864 1111.32 811.573 1113.18 809.61C1115.04 807.647 1117.16 806.112 1119.52 805.005C1121.94 803.847 1124.48 803.268 1127.15 803.268C1129.77 803.268 1132.33 803.948 1134.85 805.307C1137.42 806.616 1139.73 808.503 1141.8 810.969C1143.86 813.436 1145.52 816.405 1146.78 819.878C1148.04 823.301 1148.67 827.126 1148.67 831.354C1148.67 837.898 1147.63 843.435 1145.57 847.965C1143.56 852.495 1140.71 855.917 1137.04 858.233C1133.36 860.548 1128.94 861.706 1123.75 861.706C1120.48 861.706 1117.61 861.404 1115.14 860.8C1112.73 860.196 1110.84 859.592 1109.48 858.988C1108.12 858.384 1107.44 858.082 1107.44 858.082L1111.37 847.738H1112.2C1114.31 848.795 1116.53 849.525 1118.84 849.928C1121.21 850.33 1123.2 850.532 1124.81 850.532C1127.02 850.532 1128.96 850.305 1130.62 849.852C1132.33 849.449 1133.84 848.795 1135.15 847.889L1131.6 851.06C1132.46 850.053 1133.19 848.77 1133.79 847.21C1134.4 845.649 1134.85 843.686 1135.15 841.32C1135.45 838.955 1135.6 835.96 1135.6 832.336C1135.6 830.021 1135.38 827.806 1134.92 825.692C1134.47 823.528 1133.74 821.514 1132.74 819.652C1131.73 817.79 1130.45 816.129 1128.88 814.669C1127.37 813.159 1125.56 811.926 1123.45 810.969L1129.72 811.045C1126.39 811.951 1123.85 813.562 1122.09 815.877C1120.38 818.142 1119.52 820.583 1119.52 823.2C1119.52 824.459 1119.88 825.692 1120.58 826.9C1121.28 828.108 1122.37 829.115 1123.83 829.92C1125.29 830.675 1127.15 831.052 1129.41 831.052H1136.89L1137.42 830.75H1154.63V840.49L1153.12 842L1128.66 842.076C1124.53 842.076 1120.83 841.421 1117.56 840.112C1114.34 838.753 1111.8 836.79 1109.93 834.223C1108.07 831.606 1107.14 828.435 1107.14 824.71ZM1217.3 842V830.75H1248.86V840.49L1247.35 842H1217.3ZM1173.36 830.75H1219.26C1221.38 830.75 1223.04 830.524 1224.25 830.071C1225.51 829.568 1226.41 828.913 1226.97 828.108C1227.52 827.303 1227.8 826.371 1227.8 825.314C1227.8 823.804 1227.44 822.37 1226.74 821.011C1226.09 819.602 1225.33 818.444 1224.47 817.538L1229.91 817.991C1227.8 818.494 1225.98 818.872 1224.47 819.123C1223.01 819.375 1221.63 819.551 1220.32 819.652C1219.01 819.753 1217.58 819.803 1216.02 819.803H1174.04L1178.42 808.553H1218.36C1220.77 808.553 1223.12 808.503 1225.38 808.402C1227.7 808.251 1229.61 808 1231.12 807.647H1232.02C1233.33 808.906 1234.64 810.491 1235.95 812.404C1237.26 814.317 1238.37 816.405 1239.27 818.67C1240.23 820.885 1240.71 823.175 1240.71 825.541C1240.71 827.756 1240.35 829.844 1239.65 831.807C1239 833.77 1237.91 835.532 1236.4 837.092C1234.89 838.602 1232.85 839.81 1230.29 840.716C1227.72 841.572 1224.6 842 1220.93 842H1173.36V830.75ZM1200.16 803.268C1198.5 803.268 1197.09 802.74 1195.94 801.683C1194.78 800.626 1194.2 799.141 1194.2 797.228C1194.2 795.316 1194.78 793.856 1195.94 792.849C1197.09 791.792 1198.5 791.264 1200.16 791.264C1201.87 791.264 1203.28 791.792 1204.39 792.849C1205.55 793.856 1206.13 795.316 1206.13 797.228C1206.13 799.141 1205.55 800.626 1204.39 801.683C1203.28 802.74 1201.87 803.268 1200.16 803.268ZM1151.62 842V832.26L1153.13 830.75H1167.92L1163.55 832.789C1162.94 832.185 1162.51 831.178 1162.26 829.769C1162.01 828.309 1161.88 826.522 1161.88 824.408V785.979L1174.42 784.62H1175.25V836.262L1169.81 830.75H1185.14V840.49L1183.63 842H1151.62ZM1248.83 830.75H1263.02L1258.57 832.789C1257.96 832.185 1257.54 831.178 1257.29 829.769C1257.08 828.309 1256.98 826.522 1256.98 824.408V802.966L1269.44 801.607H1270.27V836.186L1264.91 830.75H1280.01V840.49L1278.5 842H1247.32V832.26L1248.83 830.75ZM1263.48 796.096C1261.82 796.096 1260.41 795.567 1259.25 794.51C1258.09 793.453 1257.51 791.969 1257.51 790.056C1257.51 788.143 1258.09 786.684 1259.25 785.677C1260.41 784.62 1261.82 784.091 1263.48 784.091C1265.14 784.091 1266.55 784.62 1267.7 785.677C1268.86 786.684 1269.44 788.143 1269.44 790.056C1269.44 791.969 1268.86 793.453 1267.7 794.51C1266.55 795.567 1265.14 796.096 1263.48 796.096ZM1293.08 830.75L1296.17 842H1278.51V832.26L1280.02 830.75H1293.08ZM1332.57 842C1329.14 842 1326.27 841.497 1323.96 840.49C1321.64 839.483 1319.65 837.948 1317.99 835.884C1316.38 833.821 1314.82 831.153 1313.31 827.881L1307.5 814.216L1312.03 815.499C1309.97 815.55 1308.08 815.902 1306.37 816.556C1304.66 817.16 1303.17 817.966 1301.91 818.972C1300.65 819.979 1299.7 821.137 1299.04 822.445C1298.39 823.704 1298.06 825.012 1298.06 826.371C1298.06 828.133 1298.56 829.618 1299.57 830.826C1300.58 831.984 1301.89 832.864 1303.5 833.468C1305.11 834.072 1306.79 834.374 1308.56 834.374C1310.77 834.374 1312.86 834.123 1314.82 833.619C1316.84 833.116 1318.45 832.562 1319.65 831.958L1321.16 832.713L1318.07 843.51C1316.06 844.366 1314.02 845.02 1311.95 845.473C1309.94 845.976 1308.03 846.228 1306.22 846.228C1304.6 846.228 1302.84 846.027 1300.93 845.624C1299.07 845.272 1297.23 844.643 1295.42 843.737C1293.61 842.881 1291.95 841.748 1290.44 840.339C1288.98 838.879 1287.79 837.092 1286.89 834.978C1285.98 832.864 1285.53 830.373 1285.53 827.504C1285.53 823.528 1286.38 820.055 1288.1 817.085C1289.86 814.115 1292.2 811.624 1295.12 809.61C1298.04 807.597 1301.28 806.087 1304.86 805.08C1308.48 804.074 1312.13 803.57 1315.8 803.57L1317.24 804.401L1323.51 820.935C1324.71 824.157 1326.2 826.598 1327.96 828.259C1329.72 829.92 1331.76 830.75 1334.08 830.75V840.49L1332.57 842ZM1332.55 842V832.26L1334.06 830.75H1348.03L1343.65 832.789C1343.05 832.185 1342.62 831.178 1342.37 829.769C1342.17 828.309 1342.06 826.522 1342.06 824.408V785.903L1354.52 784.544H1355.35V827.957C1355.35 828.964 1355.35 830.222 1355.35 831.732C1355.4 833.192 1355.45 834.651 1355.5 836.111C1355.6 837.52 1355.76 838.678 1355.96 839.584V840.188C1354.45 840.792 1352.61 841.245 1350.45 841.547C1348.28 841.849 1345.61 842 1342.44 842H1332.55ZM1367.31 785.979L1380.97 784.62L1381.2 785.224C1381 786.13 1380.85 787.262 1380.75 788.621C1380.69 789.98 1380.64 791.365 1380.59 792.774C1380.59 794.183 1380.59 795.391 1380.59 796.398V842H1367.31V785.979ZM1476.43 842V830.75H1507.99V840.49L1506.48 842H1476.43ZM1432.49 830.75H1478.39C1480.5 830.75 1482.17 830.524 1483.37 830.071C1484.63 829.568 1485.54 828.913 1486.09 828.108C1486.65 827.303 1486.92 826.371 1486.92 825.314C1486.92 823.804 1486.57 822.37 1485.86 821.011C1485.21 819.602 1484.43 818.444 1483.52 817.538L1489.04 817.991C1486.92 818.494 1485.11 818.872 1483.6 819.123C1482.09 819.375 1480.68 819.551 1479.37 819.652C1478.11 819.753 1476.7 819.803 1475.14 819.803H1433.17L1437.47 808.553H1477.48C1479.85 808.553 1482.19 808.503 1484.51 808.402C1486.82 808.251 1488.73 808 1490.24 807.647H1491.15C1492.46 808.906 1493.77 810.491 1495.08 812.404C1496.38 814.317 1497.49 816.405 1498.4 818.67C1499.35 820.885 1499.83 823.175 1499.83 825.541C1499.83 827.756 1499.48 829.844 1498.78 831.807C1498.12 833.77 1497.01 835.532 1495.45 837.092C1493.94 838.602 1491.9 839.81 1489.34 840.716C1486.82 841.572 1483.7 842 1479.98 842H1432.49V830.75ZM1404.7 842V841.169L1408.55 830.75H1427.05L1422.6 832.789C1422.04 832.185 1421.64 831.178 1421.39 829.769C1421.14 828.309 1421.01 826.522 1421.01 824.408V785.979L1433.54 784.62H1434.3V836.262L1428.94 830.75H1444.26V840.49L1442.75 842H1404.7ZM1506.48 842V832.26L1507.99 830.75H1521.96L1517.58 832.789C1516.98 832.185 1516.55 831.128 1516.3 829.618C1516.1 828.108 1515.99 826.296 1515.99 824.182V802.966L1528.45 801.607H1529.28V827.957C1529.28 828.964 1529.28 830.222 1529.28 831.732C1529.33 833.192 1529.38 834.651 1529.43 836.111C1529.53 837.52 1529.69 838.678 1529.89 839.584V840.188C1528.38 840.792 1526.54 841.245 1524.38 841.547C1522.21 841.849 1519.54 842 1516.37 842H1506.48ZM1515.62 854.231C1515.62 852.318 1516.2 850.834 1517.35 849.777C1518.56 848.77 1520 848.267 1521.66 848.267C1523.32 848.267 1524.73 848.77 1525.89 849.777C1527.04 850.834 1527.62 852.318 1527.62 854.231C1527.62 856.093 1527.04 857.553 1525.89 858.61C1524.73 859.667 1523.32 860.196 1521.66 860.196C1520 860.196 1518.56 859.667 1517.35 858.61C1516.2 857.553 1515.62 856.093 1515.62 854.231ZM1535.42 849.399C1536.73 849.701 1538.04 849.953 1539.35 850.154C1540.66 850.406 1541.97 850.532 1543.27 850.532C1545.29 850.532 1547.08 850.28 1548.64 849.777C1550.25 849.273 1551.43 848.77 1552.18 848.267L1549.09 851.362C1549.94 850.104 1550.65 848.493 1551.2 846.53C1551.81 844.617 1552.26 842.352 1552.56 839.735C1552.86 837.067 1553.01 834.047 1553.01 830.675C1553.01 826.346 1552.81 822.244 1552.41 818.368C1552.01 814.442 1551.55 810.743 1551.05 807.27L1563.89 805.911H1564.72C1565.17 809.334 1565.55 813.109 1565.85 817.236C1566.15 821.363 1566.3 825.541 1566.3 829.769C1566.3 835.557 1565.72 840.465 1564.57 844.491C1563.41 848.569 1561.72 851.865 1559.51 854.382C1557.34 856.899 1554.7 858.736 1551.58 859.894C1548.51 861.051 1545.04 861.63 1541.16 861.63C1539.85 861.63 1538.47 861.529 1537.01 861.328C1535.6 861.177 1534.42 861.001 1533.46 860.8C1532.45 860.649 1531.95 860.573 1531.95 860.573V859.818L1535.42 849.399ZM1606.3 842V830.75H1618.61V840.49L1617.1 842H1606.3ZM1595.5 785.979L1609.17 784.62L1609.39 785.224C1609.19 786.13 1609.04 787.262 1608.94 788.621C1608.89 789.98 1608.84 791.365 1608.79 792.774C1608.79 794.183 1608.79 795.391 1608.79 796.398V842H1595.5V785.979ZM1618.59 830.75H1632.78L1628.33 832.789C1627.72 832.185 1627.3 831.178 1627.04 829.769C1626.84 828.309 1626.74 826.522 1626.74 824.408V802.966L1639.2 801.607H1640.03V836.186L1634.67 830.75H1649.77V840.49L1648.26 842H1617.08V832.26L1618.59 830.75ZM1631.2 853.174C1631.2 851.261 1631.77 849.777 1632.93 848.72C1634.14 847.713 1635.57 847.21 1637.24 847.21C1638.9 847.21 1640.31 847.713 1641.46 848.72C1642.62 849.777 1643.2 851.261 1643.2 853.174C1643.2 855.036 1642.62 856.496 1641.46 857.553C1640.31 858.61 1638.9 859.139 1637.24 859.139C1635.57 859.139 1634.14 858.61 1632.93 857.553C1631.77 856.496 1631.2 855.036 1631.2 853.174ZM1617.53 854.684C1617.53 852.822 1618.11 851.362 1619.27 850.305C1620.42 849.298 1621.86 848.795 1623.57 848.795C1625.23 848.795 1626.62 849.298 1627.72 850.305C1628.88 851.362 1629.46 852.822 1629.46 854.684C1629.46 856.597 1628.88 858.082 1627.72 859.139C1626.62 860.196 1625.21 860.724 1623.49 860.724C1621.83 860.724 1620.42 860.196 1619.27 859.139C1618.11 858.082 1617.53 856.597 1617.53 854.684ZM1648.27 842V832.26L1649.78 830.75H1686.32L1683.45 832.336C1680.68 830.876 1677.74 828.938 1674.61 826.522C1671.54 824.056 1668.37 821.237 1665.1 818.066C1661.88 814.845 1658.63 811.397 1655.36 807.723L1662.99 797.681H1663.82C1669.91 804.074 1675.19 809.434 1679.67 813.763C1684.15 818.041 1688 821.414 1691.22 823.88C1694.45 826.346 1697.16 828.108 1699.38 829.165C1701.59 830.222 1703.43 830.75 1704.89 830.75H1710.7V831.581L1706.78 842H1648.27ZM1666.31 854.76C1666.31 852.847 1666.89 851.362 1668.05 850.305C1669.25 849.298 1670.69 848.795 1672.35 848.795C1674.01 848.795 1675.42 849.298 1676.58 850.305C1677.74 851.362 1678.31 852.847 1678.31 854.76C1678.31 856.622 1677.74 858.082 1676.58 859.139C1675.42 860.196 1674.01 860.724 1672.35 860.724C1670.69 860.724 1669.25 860.196 1668.05 859.139C1666.89 858.082 1666.31 856.622 1666.31 854.76ZM1715.42 824.71C1715.42 821.791 1715.95 819.048 1717 816.481C1718.11 813.864 1719.59 811.573 1721.46 809.61C1723.32 807.647 1725.43 806.112 1727.8 805.005C1730.22 803.847 1732.76 803.268 1735.42 803.268C1738.04 803.268 1740.61 803.948 1743.13 805.307C1745.69 806.616 1748.01 808.503 1750.07 810.969C1752.14 813.436 1753.8 816.405 1755.05 819.878C1756.31 823.301 1756.94 827.126 1756.94 831.354C1756.94 837.898 1755.91 843.435 1753.85 847.965C1751.83 852.495 1748.99 855.917 1745.32 858.233C1741.64 860.548 1737.21 861.706 1732.03 861.706C1728.76 861.706 1725.89 861.404 1723.42 860.8C1721 860.196 1719.12 859.592 1717.76 858.988C1716.4 858.384 1715.72 858.082 1715.72 858.082L1719.65 847.738H1720.48C1722.59 848.795 1724.8 849.525 1727.12 849.928C1729.49 850.33 1731.47 850.532 1733.08 850.532C1735.3 850.532 1737.24 850.305 1738.9 849.852C1740.61 849.449 1742.12 848.795 1743.43 847.889L1739.88 851.06C1740.73 850.053 1741.46 848.77 1742.07 847.21C1742.67 845.649 1743.13 843.686 1743.43 841.32C1743.73 838.955 1743.88 835.96 1743.88 832.336C1743.88 830.021 1743.65 827.806 1743.2 825.692C1742.75 823.528 1742.02 821.514 1741.01 819.652C1740.01 817.79 1738.72 816.129 1737.16 814.669C1735.65 813.159 1733.84 811.926 1731.73 810.969L1737.99 811.045C1734.67 811.951 1732.13 813.562 1730.37 815.877C1728.65 818.142 1727.8 820.583 1727.8 823.2C1727.8 824.459 1728.15 825.692 1728.86 826.9C1729.56 828.108 1730.64 829.115 1732.1 829.92C1733.56 830.675 1735.42 831.052 1737.69 831.052H1745.16L1745.69 830.75H1762.91V840.49L1761.4 842L1736.93 842.076C1732.81 842.076 1729.11 841.421 1725.84 840.112C1722.61 838.753 1720.07 836.79 1718.21 834.223C1716.35 831.606 1715.42 828.435 1715.42 824.71ZM1759.89 842V832.26L1761.4 830.75H1775.37L1770.99 832.789C1770.39 832.185 1769.96 831.178 1769.71 829.769C1769.51 828.309 1769.41 826.522 1769.41 824.408V785.903L1781.86 784.544H1782.69V827.957C1782.69 828.964 1782.69 830.222 1782.69 831.732C1782.74 833.192 1782.79 834.651 1782.85 836.111C1782.95 837.52 1783.1 838.678 1783.3 839.584V840.188C1781.79 840.792 1779.95 841.245 1777.79 841.547C1775.62 841.849 1772.95 842 1769.78 842H1759.89ZM1792.76 824.71C1792.76 821.791 1793.29 819.048 1794.35 816.481C1795.45 813.864 1796.94 811.573 1798.8 809.61C1800.66 807.647 1802.78 806.112 1805.14 805.005C1807.56 803.847 1810.1 803.268 1812.77 803.268C1815.39 803.268 1817.95 803.948 1820.47 805.307C1823.04 806.616 1825.35 808.503 1827.42 810.969C1829.48 813.436 1831.14 816.405 1832.4 819.878C1833.66 823.301 1834.29 827.126 1834.29 831.354C1834.29 837.898 1833.25 843.435 1831.19 847.965C1829.18 852.495 1826.33 855.917 1822.66 858.233C1818.98 860.548 1814.55 861.706 1809.37 861.706C1806.1 861.706 1803.23 861.404 1800.76 860.8C1798.35 860.196 1796.46 859.592 1795.1 858.988C1793.74 858.384 1793.06 858.082 1793.06 858.082L1796.99 847.738H1797.82C1799.93 848.795 1802.15 849.525 1804.46 849.928C1806.83 850.33 1808.82 850.532 1810.43 850.532C1812.64 850.532 1814.58 850.305 1816.24 849.852C1817.95 849.449 1819.46 848.795 1820.77 847.889L1817.22 851.06C1818.08 850.053 1818.81 848.77 1819.41 847.21C1820.02 845.649 1820.47 843.686 1820.77 841.32C1821.07 838.955 1821.22 835.96 1821.22 832.336C1821.22 830.021 1821 827.806 1820.54 825.692C1820.09 823.528 1819.36 821.514 1818.36 819.652C1817.35 817.79 1816.06 816.129 1814.5 814.669C1812.99 813.159 1811.18 811.926 1809.07 810.969L1815.34 811.045C1812.01 811.951 1809.47 813.562 1807.71 815.877C1806 818.142 1805.14 820.583 1805.14 823.2C1805.14 824.459 1805.49 825.692 1806.2 826.9C1806.9 828.108 1807.99 829.115 1809.45 829.92C1810.91 830.675 1812.77 831.052 1815.03 831.052H1822.51L1823.04 830.75H1840.25V840.49L1838.74 842L1814.28 842.076C1810.15 842.076 1806.45 841.421 1803.18 840.112C1799.96 838.753 1797.42 836.79 1795.55 834.223C1793.69 831.606 1792.76 828.435 1792.76 824.71ZM1838.75 830.75H1852.94L1848.49 832.789C1847.88 832.185 1847.45 831.178 1847.2 829.769C1847 828.309 1846.9 826.522 1846.9 824.408V802.966L1859.36 801.607H1860.19V836.186L1854.83 830.75H1869.93V840.49L1868.42 842H1837.24V832.26L1838.75 830.75ZM1853.39 796.096C1851.73 796.096 1850.32 795.567 1849.17 794.51C1848.01 793.453 1847.43 791.969 1847.43 790.056C1847.43 788.143 1848.01 786.684 1849.17 785.677C1850.32 784.62 1851.73 784.091 1853.39 784.091C1855.05 784.091 1856.46 784.62 1857.62 785.677C1858.78 786.684 1859.36 788.143 1859.36 790.056C1859.36 791.969 1858.78 793.453 1857.62 794.51C1856.46 795.567 1855.05 796.096 1853.39 796.096ZM1933.66 842L1940.75 830.75H1963.71V840.49L1962.2 842H1933.66ZM1868.42 842L1868.5 832.26L1870.01 830.75H1933.66C1937.18 830.75 1939.6 830.297 1940.9 829.391C1942.21 828.485 1942.87 827.126 1942.87 825.314C1942.87 823.804 1942.52 822.37 1941.81 821.011C1941.16 819.602 1940.38 818.444 1939.47 817.538L1944.98 817.991C1942.87 818.494 1941.06 818.872 1939.55 819.123C1938.04 819.375 1936.63 819.551 1935.32 819.652C1934.06 819.753 1932.65 819.803 1931.09 819.803H1884.43C1882.06 819.803 1880.03 819.174 1878.32 817.915C1876.65 816.607 1875.67 814.342 1875.37 811.12L1906.02 783.563H1906.78L1911.99 791.566L1888.66 812.026L1886.77 808.553H1933.43C1935.8 808.553 1938.14 808.503 1940.45 808.402C1942.77 808.251 1944.68 808 1946.19 807.647H1947.1C1948.35 808.805 1949.61 810.265 1950.87 812.026C1952.18 813.738 1953.29 815.625 1954.19 817.689C1955.1 819.753 1955.55 821.841 1955.55 823.955C1955.55 826.271 1955.05 828.46 1954.04 830.524C1953.03 832.588 1951.3 834.425 1948.83 836.035L1945.89 840.414C1944.53 840.918 1942.97 841.32 1941.21 841.622C1939.44 841.874 1937.46 842 1935.24 842H1868.42ZM1962.21 842V832.26L1963.72 830.75H1977.69L1973.31 832.789C1972.7 832.185 1972.28 831.128 1972.02 829.618C1971.82 828.108 1971.72 826.296 1971.72 824.182V802.966L1984.18 801.607H1985.01V827.957C1985.01 828.964 1985.01 830.222 1985.01 831.732C1985.06 833.192 1985.11 834.651 1985.16 836.111C1985.26 837.52 1985.41 838.678 1985.61 839.584V840.188C1984.1 840.792 1982.27 841.245 1980.1 841.547C1977.94 841.849 1975.27 842 1972.1 842H1962.21ZM1985.69 794.284C1984.08 794.284 1982.67 793.755 1981.46 792.698C1980.3 791.641 1979.73 790.182 1979.73 788.319C1979.73 786.407 1980.3 784.947 1981.46 783.94C1982.67 782.883 1984.08 782.355 1985.69 782.355C1987.4 782.355 1988.84 782.883 1989.99 783.94C1991.15 784.947 1991.73 786.407 1991.73 788.319C1991.73 790.182 1991.15 791.641 1989.99 792.698C1988.84 793.755 1987.4 794.284 1985.69 794.284ZM1972.02 795.869C1970.36 795.869 1968.95 795.341 1967.8 794.284C1966.64 793.227 1966.06 791.767 1966.06 789.905C1966.06 787.992 1966.64 786.507 1967.8 785.45C1968.95 784.393 1970.36 783.865 1972.02 783.865C1973.69 783.865 1975.1 784.393 1976.25 785.45C1977.41 786.507 1977.99 787.992 1977.99 789.905C1977.99 791.767 1977.41 793.227 1976.25 794.284C1975.1 795.341 1973.69 795.869 1972.02 795.869Z" fill="#4179AD"/>
<path d="M785.273 721V703.269H835.015V718.62L832.635 721H785.273ZM703.639 695.296H704.948C705.821 695.693 707.05 696.208 708.637 696.843C710.224 697.398 711.771 697.914 713.278 698.39C714.865 698.866 716.094 699.263 716.967 699.58C721.172 700.77 725.813 701.643 730.89 702.198C736.047 702.674 741.045 702.991 745.884 703.15C750.803 703.229 754.968 703.269 758.379 703.269H807.288L800.386 706.482C799.434 705.53 798.76 703.943 798.363 701.722C798.046 699.421 797.887 696.605 797.887 693.273V659.477L817.522 657.335H818.831V698.866C818.831 700.453 818.831 702.436 818.831 704.816C818.91 707.117 818.99 709.417 819.069 711.718C819.228 713.939 819.466 715.764 819.783 717.192L819.426 718.144C817.046 719.096 813.952 719.81 810.144 720.286C806.336 720.762 801.933 721 796.935 721H758.379C751.239 721 744.139 720.802 737.078 720.405C730.097 719.929 722.282 718.699 713.635 716.716C712.128 716.319 710.462 715.883 708.637 715.407C706.812 714.852 705.067 714.296 703.401 713.741C701.735 713.186 700.386 712.67 699.355 712.194L703.639 695.296ZM759.688 651.861C757.229 651.861 755.166 651.107 753.5 649.6C751.834 648.093 751.001 645.99 751.001 643.293C751.001 640.516 751.834 638.374 753.5 636.867C755.166 635.36 757.229 634.606 759.688 634.606C762.147 634.606 764.21 635.36 765.876 636.867C767.542 638.374 768.375 640.516 768.375 643.293C768.375 645.99 767.542 648.093 765.876 649.6C764.21 651.107 762.147 651.861 759.688 651.861ZM772.064 669.83C769.525 669.83 767.304 668.997 765.4 667.331C763.575 665.665 762.663 663.325 762.663 660.31C762.663 657.375 763.575 655.114 765.4 653.527C767.304 651.861 769.565 651.028 772.183 651.028C774.801 651.028 777.022 651.861 778.847 653.527C780.672 655.114 781.584 657.375 781.584 660.31C781.584 663.325 780.672 665.665 778.847 667.331C777.022 668.997 774.761 669.83 772.064 669.83ZM750.525 672.091C747.907 672.091 745.686 671.258 743.861 669.592C742.036 667.926 741.124 665.586 741.124 662.571C741.124 659.636 742.036 657.335 743.861 655.669C745.686 654.003 747.907 653.17 750.525 653.17C753.143 653.17 755.364 654.003 757.189 655.669C759.014 657.335 759.926 659.636 759.926 662.571C759.926 665.586 759.014 667.926 757.189 669.592C755.444 671.258 753.222 672.091 750.525 672.091ZM832.584 721V705.649L834.964 703.269H858.288L851.386 706.482C850.434 705.53 849.76 703.943 849.363 701.722C848.966 699.421 848.768 696.605 848.768 693.273V632.702L868.522 630.56H869.831V711.956L861.263 703.269H885.42V718.62L883.04 721H832.584ZM885.399 703.269H907.771L900.75 706.482C899.798 705.53 899.124 703.943 898.727 701.722C898.41 699.421 898.251 696.605 898.251 693.273V659.477L917.886 657.335H919.195V711.837L910.746 703.269H934.546V718.62L932.166 721H883.019V705.649L885.399 703.269ZM905.272 738.612C905.272 735.597 906.185 733.257 908.009 731.591C909.913 730.004 912.174 729.211 914.792 729.211C917.41 729.211 919.632 730.004 921.456 731.591C923.281 733.257 924.193 735.597 924.193 738.612C924.193 741.547 923.281 743.848 921.456 745.514C919.632 747.18 917.41 748.013 914.792 748.013C912.174 748.013 909.913 747.18 908.009 745.514C906.185 743.848 905.272 741.547 905.272 738.612ZM883.733 740.992C883.733 738.057 884.646 735.756 886.47 734.09C888.295 732.503 890.556 731.71 893.253 731.71C895.871 731.71 898.053 732.503 899.798 734.09C901.623 735.756 902.535 738.057 902.535 740.992C902.535 744.007 901.623 746.347 899.798 748.013C898.053 749.679 895.832 750.512 893.134 750.512C890.516 750.512 888.295 749.679 886.47 748.013C884.646 746.347 883.733 744.007 883.733 740.992ZM932.177 721V705.649L934.557 703.269H952.764C957.762 703.269 962.284 702.555 966.33 701.127C970.376 699.699 973.866 697.835 976.802 695.534C979.737 693.233 981.998 690.774 983.585 688.156C985.171 685.459 985.965 682.88 985.965 680.421C985.965 678.438 985.211 676.613 983.704 674.947C982.276 673.202 979.935 671.853 976.683 670.901C973.509 669.87 969.344 669.433 964.188 669.592L980.848 667.093C976.722 668.442 973.351 670.584 970.733 673.519C968.115 676.454 966.171 679.628 964.902 683.039C963.712 686.371 963.117 689.584 963.117 692.678C963.117 696.883 964.069 700.532 965.973 703.626C967.877 706.72 970.534 709.14 973.946 710.885C977.357 712.63 981.363 713.503 985.965 713.503C989.455 713.503 992.629 712.868 995.485 711.599C998.42 710.33 1001.16 708.822 1003.7 707.077L997.627 719.453V652.218L1015.95 650.552H1017.26V720.405C1014.64 722.071 1011.71 723.658 1008.46 725.165C1005.28 726.752 1001.71 728.021 997.746 728.973C993.858 730.004 989.455 730.52 984.537 730.52C978.745 730.52 973.311 729.727 968.234 728.14C963.236 726.633 958.872 724.372 955.144 721.357C951.415 718.422 948.48 714.772 946.338 710.409C944.275 706.046 943.244 701.048 943.244 695.415C943.244 690.338 944.156 685.459 945.981 680.778C947.885 676.097 950.463 671.893 953.716 668.164C956.968 664.435 960.697 661.5 964.902 659.358C969.186 657.137 973.708 656.026 978.468 656.026C983.148 656.026 987.155 657.097 990.487 659.239C993.819 661.302 996.357 664.078 998.103 667.569C999.848 671.06 1000.72 674.947 1000.72 679.231C1000.72 683.277 999.848 687.283 998.103 691.25C996.437 695.137 994.017 698.668 990.844 701.841C987.67 705.014 983.862 707.672 979.42 709.814C974.977 711.877 969.979 713.225 964.426 713.86L959.309 721H932.177Z" fill="#4179AD"/>
<path d="M969.859 553V502.787H1110.73V546.26L1103.99 553H969.859ZM1024.45 553H864.378C844.158 553 823.938 552.438 803.718 551.315C783.498 549.967 762.042 546.485 739.351 540.868C735.082 539.745 730.364 538.509 725.197 537.161C720.03 535.588 715.087 534.016 710.369 532.443C705.651 530.87 701.832 529.41 698.911 528.062L711.043 480.208H714.75C717.221 481.331 720.704 482.792 725.197 484.589C729.69 486.162 734.071 487.622 738.34 488.97C742.833 490.318 746.316 491.441 748.787 492.34C757.324 495.036 766.76 497.058 777.095 498.406C787.43 499.754 797.989 500.765 808.773 501.439C819.782 502.113 830.453 502.562 840.788 502.787C851.123 502.787 860.559 502.787 869.096 502.787H986.035L966.826 514.919V304.294L1026.14 298.228L1027.15 300.924C1026.25 304.968 1025.58 310.023 1025.13 316.089C1024.9 322.155 1024.68 328.333 1024.45 334.624C1024.45 340.915 1024.45 346.307 1024.45 350.8V553ZM895.719 386.522C903.807 389.667 909.648 393.599 913.243 398.317C916.838 402.81 918.635 408.652 918.635 415.841C918.635 427.524 913.58 436.735 903.47 443.475C893.585 450.215 879.768 453.585 862.019 453.585H819.22V449.541L828.656 419.885H870.107C874.6 419.885 876.847 418.762 876.847 416.515C876.847 415.392 876.285 414.493 875.162 413.819C874.039 413.145 872.466 412.246 870.444 411.123L854.268 403.372C847.977 400.227 843.372 396.632 840.451 392.588C837.53 388.319 836.07 383.04 836.07 376.749C836.07 368.212 839.44 360.91 846.18 354.844C853.145 348.553 863.929 342.937 878.532 337.994L906.503 328.221L908.525 331.254L906.166 361.584L884.598 368.661C879.206 370.458 874.937 372.031 871.792 373.379C868.647 374.727 865.838 376.412 863.367 378.434L863.03 370.346C865.277 372.817 868.085 374.839 871.455 376.412C875.05 377.985 878.981 379.67 883.25 381.467L895.719 386.522ZM1110.59 502.787H1173.95L1154.06 511.886C1151.37 509.19 1149.46 504.697 1148.33 498.406C1147.44 491.891 1146.99 483.915 1146.99 474.479V378.771L1202.59 372.705H1206.3V527.051L1182.37 502.787H1249.77V546.26L1243.03 553H1103.85V509.527L1110.59 502.787ZM1166.87 602.876C1166.87 594.339 1169.45 587.711 1174.62 582.993C1180.01 578.5 1186.42 576.253 1193.83 576.253C1201.24 576.253 1207.53 578.5 1212.7 582.993C1217.87 587.711 1220.45 594.339 1220.45 602.876C1220.45 611.189 1217.87 617.704 1212.7 622.422C1207.53 627.14 1201.24 629.499 1193.83 629.499C1186.42 629.499 1180.01 627.14 1174.62 622.422C1169.45 617.704 1166.87 611.189 1166.87 602.876ZM1105.87 609.616C1105.87 601.303 1108.46 594.788 1113.62 590.07C1118.79 585.577 1125.19 583.33 1132.83 583.33C1140.25 583.33 1146.43 585.577 1151.37 590.07C1156.54 594.788 1159.12 601.303 1159.12 609.616C1159.12 618.153 1156.54 624.781 1151.37 629.499C1146.43 634.217 1140.13 636.576 1132.5 636.576C1125.08 636.576 1118.79 634.217 1113.62 629.499C1108.46 624.781 1105.87 618.153 1105.87 609.616ZM1243.06 553V509.527L1249.8 502.787H1312.15L1292.6 511.886C1289.9 509.19 1287.99 504.472 1286.87 497.732C1285.97 490.992 1285.52 482.904 1285.52 473.468V378.771L1341.13 372.705H1344.83V490.318C1344.83 494.811 1344.83 500.428 1344.83 507.168C1345.06 513.683 1345.28 520.199 1345.51 526.714C1345.96 533.005 1346.63 538.172 1347.53 542.216V544.912C1340.79 547.608 1332.59 549.63 1322.93 550.978C1313.27 552.326 1301.36 553 1287.21 553H1243.06ZM1312.82 348.104C1305.41 348.104 1299.12 345.745 1293.95 341.027C1288.78 336.309 1286.2 329.681 1286.2 321.144C1286.2 312.607 1288.78 306.091 1293.95 301.598C1299.12 296.88 1305.41 294.521 1312.82 294.521C1320.23 294.521 1326.52 296.88 1331.69 301.598C1336.86 306.091 1339.44 312.607 1339.44 321.144C1339.44 329.681 1336.86 336.309 1331.69 341.027C1326.52 345.745 1320.23 348.104 1312.82 348.104ZM1463.91 640.957C1449.3 640.957 1436.5 639.609 1425.49 636.913C1414.7 634.217 1406.28 631.521 1400.21 628.825C1394.15 626.129 1391.11 624.781 1391.11 624.781L1408.64 578.612H1412.35C1421.78 583.33 1431.67 586.588 1442 588.385C1452.56 590.182 1461.44 591.081 1468.62 591.081C1478.51 591.081 1487.05 590.295 1494.24 588.722C1501.43 587.149 1508.28 584.004 1514.79 579.286L1498.95 593.44C1502.77 588.947 1506.03 583.218 1508.73 576.253C1511.42 569.288 1513.45 560.526 1514.79 549.967C1516.14 539.408 1516.82 526.04 1516.82 509.864C1516.82 499.529 1515.8 489.644 1513.78 480.208C1511.76 470.547 1508.5 461.561 1504.01 453.248C1499.52 444.935 1493.79 437.521 1486.82 431.006C1480.08 424.266 1471.99 418.762 1462.56 414.493L1490.53 414.83C1475.7 418.874 1464.36 426.063 1456.49 436.398C1448.85 446.508 1445.03 457.404 1445.03 469.087C1445.03 474.704 1446.61 480.208 1449.75 485.6C1452.9 490.992 1457.73 495.485 1464.24 499.08C1470.76 502.45 1479.07 504.135 1489.18 504.135C1493.9 504.135 1498.84 503.798 1504.01 503.124C1509.4 502.45 1514.57 501.327 1519.51 499.754L1520.86 548.956C1515.02 550.529 1509.06 551.652 1503 552.326C1496.93 553 1491.2 553.337 1485.81 553.337C1467.39 553.337 1450.88 550.416 1436.27 544.575C1421.89 538.509 1410.55 529.747 1402.24 518.289C1393.92 506.606 1389.77 492.452 1389.77 475.827C1389.77 462.796 1392.13 450.552 1396.84 439.094C1401.79 427.411 1408.41 417.189 1416.73 408.427C1425.04 399.665 1434.48 392.813 1445.03 387.87C1455.82 382.703 1467.16 380.119 1479.07 380.119C1490.75 380.119 1502.21 383.152 1513.45 389.218C1524.9 395.059 1535.24 403.484 1544.45 414.493C1553.66 425.502 1561.07 438.757 1566.69 454.259C1572.31 469.536 1575.12 486.611 1575.12 505.483C1575.12 534.69 1570.51 559.403 1561.3 579.623C1552.31 599.843 1539.62 615.12 1523.22 625.455C1506.82 635.79 1487.05 640.957 1463.91 640.957ZM1722.79 553V502.787H1777.72V546.26L1770.98 553H1722.79ZM1594.06 586.026C1599.9 587.374 1605.74 588.497 1611.58 589.396C1617.42 590.519 1623.26 591.081 1629.1 591.081C1638.09 591.081 1646.07 589.958 1653.03 587.711C1660.22 585.464 1665.5 583.218 1668.87 580.971L1655.05 594.788C1658.87 589.171 1662.02 581.982 1664.49 573.22C1667.19 564.683 1669.21 554.573 1670.56 542.89C1671.9 530.983 1672.58 517.503 1672.58 502.45C1672.58 483.129 1671.68 464.818 1669.88 447.519C1668.08 429.995 1666.06 413.482 1663.82 397.98L1721.11 391.914H1724.81C1726.83 407.191 1728.52 424.041 1729.87 442.464C1731.22 460.887 1731.89 479.534 1731.89 498.406C1731.89 524.243 1729.31 546.148 1724.14 564.121C1718.97 582.319 1711.45 597.035 1701.56 608.268C1691.9 619.501 1680.1 627.702 1666.17 632.869C1652.47 638.036 1636.97 640.62 1619.67 640.62C1613.83 640.62 1607.65 640.171 1601.13 639.272C1594.84 638.598 1589.56 637.812 1585.29 636.913C1580.8 636.239 1578.55 635.902 1578.55 635.902V632.532L1594.06 586.026ZM1770.94 553V509.527L1777.68 502.787H1840.02L1820.48 511.886C1817.78 509.19 1815.87 504.472 1814.75 497.732C1813.85 490.992 1813.4 482.904 1813.4 473.468V378.771L1869.01 372.705H1872.71V490.318C1872.71 494.811 1872.71 500.428 1872.71 507.168C1872.94 513.683 1873.16 520.199 1873.39 526.714C1873.84 533.005 1874.51 538.172 1875.41 542.216V544.912C1868.67 547.608 1860.47 549.63 1850.81 550.978C1841.15 552.326 1829.24 553 1815.09 553H1770.94ZM1822.5 602.876C1822.5 594.339 1825.08 587.711 1830.25 582.993C1835.64 578.5 1842.05 576.253 1849.46 576.253C1856.87 576.253 1863.17 578.5 1868.33 582.993C1873.5 587.711 1876.08 594.339 1876.08 602.876C1876.08 611.189 1873.5 617.704 1868.33 622.422C1863.17 627.14 1856.87 629.499 1849.46 629.499C1842.05 629.499 1835.64 627.14 1830.25 622.422C1825.08 617.704 1822.5 611.189 1822.5 602.876ZM1761.5 609.616C1761.5 601.303 1764.09 594.788 1769.25 590.07C1774.42 585.577 1780.83 583.33 1788.46 583.33C1795.88 583.33 1802.06 585.577 1807 590.07C1812.17 594.788 1814.75 601.303 1814.75 609.616C1814.75 618.153 1812.17 624.781 1807 629.499C1802.06 634.217 1795.77 636.576 1788.13 636.576C1780.71 636.576 1774.42 634.217 1769.25 629.499C1764.09 624.781 1761.5 618.153 1761.5 609.616ZM1926.07 336.646L1987.07 330.58L1988.08 333.276C1987.18 337.32 1986.51 342.375 1986.06 348.441C1985.83 354.507 1985.61 360.685 1985.38 366.976C1985.38 373.267 1985.38 378.659 1985.38 383.152V553H1926.07V336.646ZM1914.28 264.528C1914.28 255.766 1916.52 247.79 1921.02 240.601C1925.73 233.187 1932.25 227.346 1940.56 223.077C1949.1 218.584 1959.21 216.337 1970.89 216.337H1991.11V219.37L1980.66 250.374H1971.23C1964.26 250.374 1958.53 251.61 1954.04 254.081C1949.55 256.328 1946.29 261.27 1944.27 268.909L1943.26 257.788C1945.5 263.405 1948.65 267.224 1952.69 269.246C1956.96 271.043 1961.79 271.942 1967.18 271.942H1991.11V274.975L1981 305.305H1958.09C1949.55 305.305 1941.91 303.508 1935.17 299.913C1928.65 296.094 1923.49 291.151 1919.67 285.085C1916.07 278.794 1914.28 271.942 1914.28 264.528Z" fill="#4179AD"/>
</svg>
