<svg width="2600" height="909" viewBox="0 0 2600 909" fill="none" xmlns="http://www.w3.org/2000/svg">
<path d="M616.176 491.8C616.476 394.4 616.576 391.2 618.576 382.5C623.276 362 631.876 343.2 643.376 327.9C650.776 318 666.676 302.3 675.876 295.8C697.376 280.6 722.076 271.9 748.076 270.3L757.876 269.7V309.3C757.876 333.1 757.476 349 756.976 349C752.876 349 739.576 351.5 735.276 353.1C719.076 359.2 704.176 374.5 697.976 391.4L695.376 398.5L694.876 475.9L694.376 553.4L656.376 572.7C635.476 583.3 617.776 592 617.076 592C616.076 592 615.876 573.1 616.176 491.8Z" fill="#4179AD"/>
<path d="M1165.18 484.8C1165.48 386.2 1165.58 376.9 1167.28 370C1173.28 344.4 1183.58 326.1 1202.28 307.4C1221.48 288.1 1242.08 276.9 1267.38 271.9C1277.88 269.8 1305.28 270 1315.38 272.3C1342.88 278.5 1362.58 289.5 1381.48 309.2C1398.68 327.1 1409.38 347.5 1413.98 371.3C1415.78 380.4 1415.88 386.7 1415.88 467V553L1376.68 552.8L1337.38 552.5L1336.88 467.5C1336.28 371.8 1337.08 380.7 1328.28 368.4C1318.58 354.7 1303.68 348 1286.18 349.3C1267.48 350.7 1249.18 366.6 1244.98 385.1C1244.28 387.9 1243.88 419.8 1243.88 471.2V553L1204.88 572.5C1183.48 583.2 1165.68 592 1165.38 592C1165.08 592 1164.98 543.7 1165.18 484.8Z" fill="#4179AD"/>
<path d="M929.876 551.4C896.176 546 863.176 525.1 840.276 494.7C812.376 457.7 805.476 405.4 822.576 360.5C829.676 341.9 839.476 327.2 855.276 311.5C876.576 290.4 899.576 277.9 927.576 272.3C940.076 269.8 969.976 269.9 982.376 272.4C1018.88 279.8 1052.08 302.1 1072.88 333.1C1089.38 357.9 1096.18 380.6 1096.28 411.5C1096.28 450.6 1083.88 481.4 1056.98 509.3C1035.78 531.2 1014.48 543.5 985.876 550.2C974.176 552.9 943.476 553.6 929.876 551.4Z" fill="#4179AD"/>
<path d="M1490.88 431.2V309.5L1529.68 290C1550.98 279.3 1568.68 270.4 1569.18 270.2C1569.58 270 1569.88 333.5 1569.88 411.4V553H1530.38H1490.88V431.2Z" fill="#4179AD"/>
<path d="M1757.98 551.4C1740.68 548.7 1721.28 541 1705.28 530.4C1694.38 523.2 1676.18 505.8 1668.28 495C1655.78 478 1646.68 456 1643.28 434.3C1639.78 412 1642.68 381.7 1650.18 362C1660.28 335.1 1679.78 310.8 1704.38 294C1746.48 265.4 1802.58 262.5 1848.88 286.6C1877.38 301.4 1900.38 326.2 1913.18 355.8L1915.78 362H1868.68H1821.58L1816.48 358.9C1804.38 351.4 1788.68 348 1774.98 349.9C1759.08 352 1750.08 356.6 1738.38 368.4C1724.88 382 1720.28 394.5 1721.18 415C1721.78 428.9 1723.98 436 1730.98 446.5C1736.48 454.7 1741.28 459.4 1750.08 465.1C1759.88 471.4 1765.78 473.2 1778.88 473.7C1796.38 474.5 1806.58 471.7 1819.48 462.4L1826.98 457H1871.98C1896.68 457 1916.88 457.3 1916.88 457.6C1916.88 459.5 1908.88 476.5 1904.78 483.5C1898.18 494.8 1892.38 502.2 1882.68 511.8C1870.58 523.8 1860.08 531.3 1845.38 538.5C1823.98 549.1 1806.48 553.1 1781.88 552.9C1773.88 552.8 1763.18 552.2 1757.98 551.4Z" fill="#4179AD"/>
<path d="M1524.88 254C1506.98 251.5 1493.68 234.5 1495.18 216.1C1495.78 207.5 1498.68 201.2 1504.88 194.6C1518.48 180.2 1539.48 179.3 1553.68 192.5C1562.18 200.3 1565.38 207.7 1565.38 219C1565.38 226.6 1564.98 228.3 1562.08 234.2C1555.08 248.4 1540.48 256.3 1524.88 254Z" fill="#4179AD"/>
<path d="M648.157 801.064H657.418V852H648.157V829.435H626.033V852H616.772V801.064H626.033V821.424H648.157V801.064ZM667.028 832.963C667.028 829.582 667.518 826.618 668.498 824.07C669.527 821.522 670.875 819.415 672.541 817.749C674.207 816.034 676.118 814.76 678.274 813.927C680.43 813.045 682.635 812.604 684.889 812.604C690.181 812.604 694.297 814.245 697.237 817.528C700.226 820.811 701.72 825.711 701.72 832.228C701.72 832.718 701.696 833.282 701.647 833.919C701.647 834.507 701.622 835.046 701.573 835.536H676.216C676.461 838.623 677.539 841.024 679.45 842.739C681.41 844.405 684.227 845.238 687.902 845.238C690.058 845.238 692.018 845.042 693.782 844.65C695.595 844.258 697.016 843.841 698.045 843.4L699.221 850.677C698.731 850.922 698.045 851.191 697.163 851.485C696.33 851.73 695.35 851.951 694.223 852.147C693.145 852.392 691.969 852.588 690.695 852.735C689.421 852.882 688.123 852.956 686.8 852.956C683.419 852.956 680.479 852.466 677.98 851.485C675.481 850.456 673.423 849.06 671.806 847.296C670.189 845.483 668.988 843.376 668.204 840.975C667.42 838.525 667.028 835.854 667.028 832.963ZM692.827 828.994C692.827 827.769 692.655 826.618 692.312 825.54C691.969 824.413 691.455 823.457 690.769 822.673C690.132 821.84 689.323 821.203 688.343 820.762C687.412 820.272 686.285 820.027 684.962 820.027C683.59 820.027 682.39 820.297 681.361 820.836C680.332 821.326 679.45 821.987 678.715 822.82C678.029 823.653 677.49 824.609 677.098 825.687C676.706 826.765 676.436 827.867 676.289 828.994H692.827ZM724.673 845.752C727.417 845.752 729.5 845.605 730.921 845.311V835.462C730.431 835.315 729.72 835.168 728.789 835.021C727.858 834.874 726.829 834.801 725.702 834.801C724.722 834.801 723.718 834.874 722.689 835.021C721.709 835.168 720.802 835.438 719.969 835.83C719.185 836.222 718.548 836.785 718.058 837.52C717.568 838.206 717.323 839.088 717.323 840.166C717.323 842.273 717.985 843.743 719.308 844.576C720.631 845.36 722.419 845.752 724.673 845.752ZM723.938 812.604C726.878 812.604 729.353 812.971 731.362 813.706C733.371 814.441 734.963 815.47 736.139 816.793C737.364 818.116 738.222 819.733 738.712 821.644C739.251 823.506 739.52 825.564 739.52 827.818V851.118C738.148 851.412 736.066 851.755 733.273 852.147C730.529 852.588 727.417 852.809 723.938 852.809C721.635 852.809 719.528 852.588 717.617 852.147C715.706 851.706 714.065 850.995 712.693 850.015C711.37 849.035 710.316 847.761 709.532 846.193C708.797 844.625 708.43 842.69 708.43 840.387C708.43 838.182 708.846 836.32 709.679 834.801C710.561 833.282 711.737 832.057 713.207 831.126C714.677 830.146 716.368 829.46 718.279 829.068C720.239 828.627 722.272 828.406 724.379 828.406C725.359 828.406 726.388 828.48 727.466 828.627C728.544 828.725 729.696 828.921 730.921 829.215V827.745C730.921 826.716 730.798 825.736 730.553 824.805C730.308 823.874 729.867 823.065 729.23 822.379C728.642 821.644 727.834 821.081 726.805 820.689C725.825 820.297 724.575 820.101 723.056 820.101C720.998 820.101 719.112 820.248 717.397 820.542C715.682 820.836 714.285 821.179 713.207 821.571L712.105 814.368C713.232 813.976 714.873 813.584 717.029 813.192C719.185 812.8 721.488 812.604 723.938 812.604ZM763.788 852.735C761.142 852.686 758.937 852.392 757.173 851.853C755.458 851.314 754.086 850.554 753.057 849.575C752.028 848.545 751.293 847.296 750.852 845.826C750.46 844.307 750.264 842.592 750.264 840.681V796.434L759.158 794.964V838.99C759.158 840.068 759.231 840.975 759.378 841.71C759.574 842.445 759.893 843.082 760.334 843.621C760.775 844.111 761.363 844.503 762.098 844.797C762.882 845.042 763.862 845.238 765.038 845.385L763.788 852.735ZM771.791 803.416L780.684 801.946V813.559H794.355V820.983H780.684V836.638C780.684 839.725 781.174 841.93 782.154 843.253C783.134 844.576 784.8 845.238 787.152 845.238C788.769 845.238 790.19 845.066 791.415 844.723C792.689 844.38 793.694 844.062 794.429 843.768L795.899 850.824C794.87 851.265 793.522 851.706 791.856 852.147C790.19 852.637 788.23 852.882 785.976 852.882C783.232 852.882 780.929 852.515 779.067 851.779C777.254 851.044 775.809 849.991 774.731 848.619C773.653 847.198 772.893 845.507 772.452 843.547C772.011 841.538 771.791 839.26 771.791 836.712V803.416ZM802.952 852V796.434L811.846 794.964V814C812.826 813.657 813.953 813.363 815.227 813.118C816.55 812.873 817.848 812.751 819.122 812.751C822.209 812.751 824.757 813.192 826.766 814.074C828.824 814.907 830.466 816.107 831.691 817.675C832.916 819.194 833.773 821.032 834.263 823.188C834.802 825.344 835.072 827.745 835.072 830.391V852H826.178V831.787C826.178 829.729 826.031 827.99 825.737 826.569C825.492 825.099 825.051 823.923 824.414 823.041C823.826 822.11 823.018 821.448 821.989 821.056C820.96 820.615 819.686 820.395 818.167 820.395C816.991 820.395 815.79 820.517 814.565 820.762C813.34 821.007 812.434 821.228 811.846 821.424V852H802.952ZM875.676 845.091C879.008 845.091 881.433 844.527 882.952 843.4C884.471 842.273 885.231 840.681 885.231 838.623C885.231 837.398 884.961 836.344 884.422 835.462C883.932 834.58 883.197 833.796 882.217 833.111C881.286 832.375 880.135 831.714 878.763 831.126C877.391 830.489 875.823 829.876 874.059 829.288C872.295 828.651 870.58 827.965 868.914 827.23C867.297 826.446 865.851 825.491 864.577 824.364C863.352 823.237 862.348 821.889 861.564 820.321C860.829 818.753 860.461 816.867 860.461 814.662C860.461 810.056 862.054 806.454 865.239 803.857C868.424 801.211 872.76 799.888 878.248 799.888C881.433 799.888 884.251 800.256 886.701 800.991C889.2 801.677 891.16 802.436 892.581 803.269L889.714 810.766C888.048 809.835 886.211 809.125 884.202 808.635C882.242 808.145 880.208 807.9 878.101 807.9C875.602 807.9 873.642 808.414 872.221 809.443C870.849 810.472 870.163 811.918 870.163 813.78C870.163 814.907 870.384 815.887 870.825 816.72C871.315 817.504 871.976 818.214 872.809 818.851C873.691 819.488 874.696 820.076 875.823 820.615C876.999 821.154 878.273 821.669 879.645 822.159C882.046 823.041 884.177 823.947 886.039 824.878C887.95 825.76 889.543 826.838 890.817 828.112C892.14 829.337 893.144 830.807 893.83 832.522C894.516 834.188 894.859 836.222 894.859 838.623C894.859 843.229 893.218 846.806 889.935 849.354C886.701 851.853 881.948 853.103 875.676 853.103C873.569 853.103 871.633 852.956 869.869 852.662C868.154 852.417 866.611 852.098 865.239 851.706C863.916 851.314 862.764 850.922 861.784 850.53C860.804 850.089 860.02 849.697 859.432 849.354L862.152 841.783C863.475 842.518 865.263 843.253 867.517 843.988C869.771 844.723 872.491 845.091 875.676 845.091ZM933.964 813.559C929.995 828.161 925.389 841.391 920.146 853.25C919.166 855.455 918.161 857.341 917.132 858.909C916.103 860.477 914.952 861.776 913.678 862.804C912.404 863.834 910.983 864.569 909.415 865.01C907.847 865.5 906.034 865.745 903.976 865.745C902.604 865.745 901.232 865.598 899.86 865.304C898.537 865.01 897.532 864.691 896.846 864.348L898.463 857.219C900.227 857.905 901.967 858.248 903.682 858.248C905.985 858.248 907.773 857.684 909.047 856.557C910.37 855.479 911.522 853.789 912.502 851.485C909.709 846.095 907.014 840.215 904.417 833.845C901.869 827.475 899.59 820.713 897.581 813.559H907.063C907.553 815.617 908.141 817.847 908.827 820.248C909.562 822.649 910.346 825.099 911.179 827.598C912.012 830.048 912.894 832.498 913.825 834.948C914.756 837.398 915.687 839.676 916.618 841.783C918.186 837.422 919.656 832.792 921.028 827.892C922.4 822.943 923.649 818.165 924.776 813.559H933.964ZM950.322 845.605C952.674 845.605 954.389 845.336 955.467 844.797C956.545 844.209 957.084 843.229 957.084 841.857C957.084 840.583 956.496 839.529 955.32 838.696C954.193 837.863 952.306 836.957 949.66 835.977C948.043 835.389 946.549 834.776 945.177 834.139C943.854 833.453 942.702 832.669 941.722 831.787C940.742 830.905 939.958 829.852 939.37 828.627C938.831 827.353 938.562 825.809 938.562 823.996C938.562 820.468 939.86 817.7 942.457 815.691C945.054 813.633 948.582 812.604 953.041 812.604C955.295 812.604 957.451 812.824 959.509 813.265C961.567 813.657 963.111 814.049 964.14 814.441L962.523 821.644C961.543 821.203 960.293 820.811 958.774 820.468C957.255 820.076 955.491 819.88 953.482 819.88C951.669 819.88 950.199 820.199 949.072 820.836C947.945 821.424 947.382 822.355 947.382 823.629C947.382 824.266 947.48 824.829 947.676 825.319C947.921 825.809 948.313 826.275 948.852 826.716C949.391 827.108 950.101 827.524 950.983 827.965C951.865 828.357 952.943 828.774 954.217 829.215C956.324 829.999 958.113 830.783 959.583 831.567C961.053 832.302 962.253 833.159 963.184 834.139C964.164 835.07 964.875 836.148 965.316 837.373C965.757 838.598 965.977 840.068 965.977 841.783C965.977 845.458 964.605 848.251 961.861 850.162C959.166 852.025 955.295 852.956 950.248 852.956C946.867 852.956 944.148 852.662 942.09 852.074C940.032 851.534 938.586 851.093 937.753 850.75L939.297 843.327C940.62 843.866 942.188 844.38 944.001 844.87C945.863 845.36 947.97 845.605 950.322 845.605ZM973.844 803.416L982.737 801.946V813.559H996.408V820.983H982.737V836.638C982.737 839.725 983.227 841.93 984.207 843.253C985.187 844.576 986.853 845.238 989.205 845.238C990.822 845.238 992.243 845.066 993.468 844.723C994.742 844.38 995.747 844.062 996.482 843.768L997.952 850.824C996.923 851.265 995.575 851.706 993.909 852.147C992.243 852.637 990.283 852.882 988.029 852.882C985.285 852.882 982.982 852.515 981.12 851.779C979.307 851.044 977.862 849.991 976.784 848.619C975.706 847.198 974.946 845.507 974.505 843.547C974.064 841.538 973.844 839.26 973.844 836.712V803.416ZM1002.23 832.963C1002.23 829.582 1002.72 826.618 1003.7 824.07C1004.73 821.522 1006.07 819.415 1007.74 817.749C1009.41 816.034 1011.32 814.76 1013.47 813.927C1015.63 813.045 1017.83 812.604 1020.09 812.604C1025.38 812.604 1029.5 814.245 1032.44 817.528C1035.43 820.811 1036.92 825.711 1036.92 832.228C1036.92 832.718 1036.9 833.282 1036.85 833.919C1036.85 834.507 1036.82 835.046 1036.77 835.536H1011.42C1011.66 838.623 1012.74 841.024 1014.65 842.739C1016.61 844.405 1019.43 845.238 1023.1 845.238C1025.26 845.238 1027.22 845.042 1028.98 844.65C1030.8 844.258 1032.22 843.841 1033.25 843.4L1034.42 850.677C1033.93 850.922 1033.25 851.191 1032.36 851.485C1031.53 851.73 1030.55 851.951 1029.42 852.147C1028.35 852.392 1027.17 852.588 1025.9 852.735C1024.62 852.882 1023.32 852.956 1022 852.956C1018.62 852.956 1015.68 852.466 1013.18 851.485C1010.68 850.456 1008.62 849.06 1007.01 847.296C1005.39 845.483 1004.19 843.376 1003.4 840.975C1002.62 838.525 1002.23 835.854 1002.23 832.963ZM1028.03 828.994C1028.03 827.769 1027.86 826.618 1027.51 825.54C1027.17 824.413 1026.65 823.457 1025.97 822.673C1025.33 821.84 1024.52 821.203 1023.54 820.762C1022.61 820.272 1021.49 820.027 1020.16 820.027C1018.79 820.027 1017.59 820.297 1016.56 820.836C1015.53 821.326 1014.65 821.987 1013.91 822.82C1013.23 823.653 1012.69 824.609 1012.3 825.687C1011.91 826.765 1011.64 827.867 1011.49 828.994H1028.03ZM1068.25 831.787C1068.25 827.769 1067.74 824.878 1066.71 823.114C1065.73 821.301 1063.87 820.395 1061.12 820.395C1060.14 820.395 1059.06 820.468 1057.89 820.615C1056.71 820.762 1055.83 820.885 1055.24 820.983V852H1046.35V814.809C1048.06 814.319 1050.29 813.853 1053.04 813.412C1055.83 812.971 1058.77 812.751 1061.86 812.751C1064.5 812.751 1066.66 813.094 1068.33 813.78C1070.04 814.466 1071.46 815.372 1072.59 816.499C1073.13 816.107 1073.81 815.691 1074.65 815.25C1075.48 814.809 1076.41 814.417 1077.44 814.074C1078.47 813.682 1079.55 813.363 1080.67 813.118C1081.85 812.873 1083.03 812.751 1084.2 812.751C1087.19 812.751 1089.64 813.192 1091.55 814.074C1093.51 814.907 1095.03 816.107 1096.11 817.675C1097.24 819.194 1098 821.056 1098.39 823.261C1098.83 825.417 1099.05 827.794 1099.05 830.391V852H1090.16V831.787C1090.16 827.769 1089.67 824.878 1088.69 823.114C1087.71 821.301 1085.82 820.395 1083.03 820.395C1081.6 820.395 1080.26 820.64 1078.98 821.13C1077.71 821.571 1076.75 822.012 1076.12 822.453C1076.51 823.678 1076.78 824.976 1076.93 826.348C1077.07 827.72 1077.15 829.19 1077.15 830.758V852H1068.25V831.787ZM1127.54 801.064H1136.8V852H1127.54V801.064ZM1148.56 814.809C1150.28 814.319 1152.5 813.853 1155.25 813.412C1157.99 812.971 1161.03 812.751 1164.36 812.751C1167.5 812.751 1170.12 813.192 1172.23 814.074C1174.33 814.907 1176 816.107 1177.23 817.675C1178.5 819.194 1179.38 821.056 1179.87 823.261C1180.41 825.417 1180.68 827.794 1180.68 830.391V852H1171.79V831.787C1171.79 829.729 1171.64 827.99 1171.35 826.569C1171.1 825.099 1170.66 823.923 1170.02 823.041C1169.43 822.11 1168.6 821.448 1167.52 821.056C1166.49 820.615 1165.22 820.395 1163.7 820.395C1162.57 820.395 1161.4 820.468 1160.17 820.615C1158.95 820.762 1158.04 820.885 1157.45 820.983V852H1148.56V814.809ZM1191.11 803.416L1200.01 801.946V813.559H1213.68V820.983H1200.01V836.638C1200.01 839.725 1200.5 841.93 1201.48 843.253C1202.46 844.576 1204.12 845.238 1206.48 845.238C1208.09 845.238 1209.51 845.066 1210.74 844.723C1212.01 844.38 1213.02 844.062 1213.75 843.768L1215.22 850.824C1214.19 851.265 1212.85 851.706 1211.18 852.147C1209.51 852.637 1207.55 852.882 1205.3 852.882C1202.56 852.882 1200.25 852.515 1198.39 851.779C1196.58 851.044 1195.13 849.991 1194.05 848.619C1192.98 847.198 1192.22 845.507 1191.78 843.547C1191.33 841.538 1191.11 839.26 1191.11 836.712V803.416ZM1219.5 832.963C1219.5 829.582 1219.99 826.618 1220.97 824.07C1222 821.522 1223.34 819.415 1225.01 817.749C1226.68 816.034 1228.59 814.76 1230.74 813.927C1232.9 813.045 1235.1 812.604 1237.36 812.604C1242.65 812.604 1246.77 814.245 1249.71 817.528C1252.7 820.811 1254.19 825.711 1254.19 832.228C1254.19 832.718 1254.17 833.282 1254.12 833.919C1254.12 834.507 1254.09 835.046 1254.04 835.536H1228.69C1228.93 838.623 1230.01 841.024 1231.92 842.739C1233.88 844.405 1236.7 845.238 1240.37 845.238C1242.53 845.238 1244.49 845.042 1246.25 844.65C1248.07 844.258 1249.49 843.841 1250.52 843.4L1251.69 850.677C1251.2 850.922 1250.52 851.191 1249.63 851.485C1248.8 851.73 1247.82 851.951 1246.69 852.147C1245.62 852.392 1244.44 852.588 1243.17 852.735C1241.89 852.882 1240.59 852.956 1239.27 852.956C1235.89 852.956 1232.95 852.466 1230.45 851.485C1227.95 850.456 1225.89 849.06 1224.28 847.296C1222.66 845.483 1221.46 843.376 1220.67 840.975C1219.89 838.525 1219.5 835.854 1219.5 832.963ZM1245.3 828.994C1245.3 827.769 1245.13 826.618 1244.78 825.54C1244.44 824.413 1243.92 823.457 1243.24 822.673C1242.6 821.84 1241.79 821.203 1240.81 820.762C1239.88 820.272 1238.76 820.027 1237.43 820.027C1236.06 820.027 1234.86 820.297 1233.83 820.836C1232.8 821.326 1231.92 821.987 1231.18 822.82C1230.5 823.653 1229.96 824.609 1229.57 825.687C1229.18 826.765 1228.91 827.867 1228.76 828.994H1245.3ZM1270.6 831.787C1270.6 835.56 1271.41 838.329 1273.03 840.093C1274.69 841.808 1276.82 842.665 1279.42 842.665C1280.84 842.665 1282.17 842.469 1283.39 842.077C1284.66 841.685 1285.69 841.22 1286.48 840.681V820.762C1285.84 820.615 1285.06 820.493 1284.13 820.395C1283.19 820.248 1282.02 820.174 1280.6 820.174C1277.36 820.174 1274.89 821.252 1273.17 823.408C1271.46 825.515 1270.6 828.308 1270.6 831.787ZM1295.37 848.104C1295.37 854.23 1293.8 858.713 1290.67 861.555C1287.58 864.397 1282.83 865.818 1276.41 865.818C1274.06 865.818 1271.75 865.622 1269.5 865.23C1267.29 864.838 1265.29 864.324 1263.47 863.687L1265.09 856.116C1266.61 856.753 1268.32 857.268 1270.23 857.66C1272.19 858.052 1274.3 858.248 1276.56 858.248C1280.13 858.248 1282.68 857.513 1284.2 856.043C1285.72 854.573 1286.48 852.392 1286.48 849.501V848.031C1285.6 848.472 1284.42 848.913 1282.95 849.354C1281.53 849.795 1279.89 850.015 1278.03 850.015C1275.58 850.015 1273.32 849.623 1271.26 848.839C1269.25 848.055 1267.51 846.904 1266.04 845.385C1264.62 843.866 1263.5 841.979 1262.66 839.725C1261.88 837.422 1261.49 834.776 1261.49 831.787C1261.49 828.994 1261.9 826.422 1262.74 824.07C1263.62 821.718 1264.87 819.709 1266.49 818.043C1268.15 816.377 1270.16 815.078 1272.51 814.147C1274.86 813.216 1277.54 812.751 1280.52 812.751C1283.42 812.751 1286.16 812.971 1288.76 813.412C1291.35 813.853 1293.56 814.319 1295.37 814.809V848.104ZM1328.59 821.571C1327.85 821.326 1326.82 821.081 1325.5 820.836C1324.23 820.542 1322.73 820.395 1321.02 820.395C1320.04 820.395 1318.98 820.493 1317.86 820.689C1316.78 820.885 1316.02 821.056 1315.58 821.203V852H1306.69V815.397C1308.4 814.76 1310.53 814.172 1313.08 813.633C1315.68 813.045 1318.54 812.751 1321.68 812.751C1322.27 812.751 1322.95 812.8 1323.74 812.898C1324.52 812.947 1325.31 813.045 1326.09 813.192C1326.87 813.29 1327.63 813.437 1328.37 813.633C1329.1 813.78 1329.69 813.927 1330.13 814.074L1328.59 821.571ZM1349.85 845.752C1352.6 845.752 1354.68 845.605 1356.1 845.311V835.462C1355.61 835.315 1354.9 835.168 1353.97 835.021C1353.04 834.874 1352.01 834.801 1350.88 834.801C1349.9 834.801 1348.9 834.874 1347.87 835.021C1346.89 835.168 1345.98 835.438 1345.15 835.83C1344.37 836.222 1343.73 836.785 1343.24 837.52C1342.75 838.206 1342.5 839.088 1342.5 840.166C1342.5 842.273 1343.17 843.743 1344.49 844.576C1345.81 845.36 1347.6 845.752 1349.85 845.752ZM1349.12 812.604C1352.06 812.604 1354.53 812.971 1356.54 813.706C1358.55 814.441 1360.14 815.47 1361.32 816.793C1362.54 818.116 1363.4 819.733 1363.89 821.644C1364.43 823.506 1364.7 825.564 1364.7 827.818V851.118C1363.33 851.412 1361.25 851.755 1358.45 852.147C1355.71 852.588 1352.6 852.809 1349.12 852.809C1346.82 852.809 1344.71 852.588 1342.8 852.147C1340.89 851.706 1339.25 850.995 1337.87 850.015C1336.55 849.035 1335.5 847.761 1334.71 846.193C1333.98 844.625 1333.61 842.69 1333.61 840.387C1333.61 838.182 1334.03 836.32 1334.86 834.801C1335.74 833.282 1336.92 832.057 1338.39 831.126C1339.86 830.146 1341.55 829.46 1343.46 829.068C1345.42 828.627 1347.45 828.406 1349.56 828.406C1350.54 828.406 1351.57 828.48 1352.65 828.627C1353.72 828.725 1354.88 828.921 1356.1 829.215V827.745C1356.1 826.716 1355.98 825.736 1355.73 824.805C1355.49 823.874 1355.05 823.065 1354.41 822.379C1353.82 821.644 1353.01 821.081 1351.99 820.689C1351.01 820.297 1349.76 820.101 1348.24 820.101C1346.18 820.101 1344.29 820.248 1342.58 820.542C1340.86 820.836 1339.47 821.179 1338.39 821.571L1337.29 814.368C1338.41 813.976 1340.05 813.584 1342.21 813.192C1344.37 812.8 1346.67 812.604 1349.12 812.604ZM1375.15 803.416L1384.04 801.946V813.559H1397.72V820.983H1384.04V836.638C1384.04 839.725 1384.53 841.93 1385.51 843.253C1386.49 844.576 1388.16 845.238 1390.51 845.238C1392.13 845.238 1393.55 845.066 1394.78 844.723C1396.05 844.38 1397.05 844.062 1397.79 843.768L1399.26 850.824C1398.23 851.265 1396.88 851.706 1395.22 852.147C1393.55 852.637 1391.59 852.882 1389.34 852.882C1386.59 852.882 1384.29 852.515 1382.43 851.779C1380.61 851.044 1379.17 849.991 1378.09 848.619C1377.01 847.198 1376.25 845.507 1375.81 843.547C1375.37 841.538 1375.15 839.26 1375.15 836.712V803.416ZM1415.28 852H1406.39V813.559H1415.28V852ZM1416.24 802.314C1416.24 803.98 1415.7 805.303 1414.62 806.283C1413.54 807.263 1412.27 807.753 1410.8 807.753C1409.28 807.753 1407.98 807.263 1406.9 806.283C1405.82 805.303 1405.28 803.98 1405.28 802.314C1405.28 800.599 1405.82 799.251 1406.9 798.271C1407.98 797.291 1409.28 796.801 1410.8 796.801C1412.27 796.801 1413.54 797.291 1414.62 798.271C1415.7 799.251 1416.24 800.599 1416.24 802.314ZM1461.39 832.743C1461.39 835.781 1460.95 838.549 1460.07 841.048C1459.19 843.547 1457.94 845.679 1456.32 847.443C1454.7 849.207 1452.74 850.579 1450.44 851.559C1448.19 852.539 1445.69 853.029 1442.94 853.029C1440.2 853.029 1437.7 852.539 1435.45 851.559C1433.19 850.579 1431.26 849.207 1429.64 847.443C1428.02 845.679 1426.75 843.547 1425.82 841.048C1424.94 838.549 1424.49 835.781 1424.49 832.743C1424.49 829.705 1424.94 826.961 1425.82 824.511C1426.75 822.012 1428.02 819.88 1429.64 818.116C1431.31 816.352 1433.27 815.005 1435.52 814.074C1437.77 813.094 1440.25 812.604 1442.94 812.604C1445.64 812.604 1448.11 813.094 1450.37 814.074C1452.67 815.005 1454.63 816.352 1456.25 818.116C1457.86 819.88 1459.11 822.012 1459.99 824.511C1460.93 826.961 1461.39 829.705 1461.39 832.743ZM1452.28 832.743C1452.28 828.921 1451.44 825.907 1449.78 823.702C1448.16 821.448 1445.88 820.321 1442.94 820.321C1440 820.321 1437.7 821.448 1436.03 823.702C1434.42 825.907 1433.61 828.921 1433.61 832.743C1433.61 836.614 1434.42 839.676 1436.03 841.93C1437.7 844.184 1440 845.311 1442.94 845.311C1445.88 845.311 1448.16 844.184 1449.78 841.93C1451.44 839.676 1452.28 836.614 1452.28 832.743ZM1470.55 814.809C1472.27 814.319 1474.5 813.853 1477.24 813.412C1479.99 812.971 1483.02 812.751 1486.36 812.751C1489.49 812.751 1492.11 813.192 1494.22 814.074C1496.33 814.907 1497.99 816.107 1499.22 817.675C1500.49 819.194 1501.37 821.056 1501.86 823.261C1502.4 825.417 1502.67 827.794 1502.67 830.391V852H1493.78V831.787C1493.78 829.729 1493.63 827.99 1493.34 826.569C1493.09 825.099 1492.65 823.923 1492.02 823.041C1491.43 822.11 1490.59 821.448 1489.52 821.056C1488.49 820.615 1487.21 820.395 1485.69 820.395C1484.57 820.395 1483.39 820.468 1482.17 820.615C1480.94 820.762 1480.04 820.885 1479.45 820.983V852H1470.55V814.809ZM1566.64 801.064V809.076H1550.99V852H1541.65V809.076H1526V801.064H1566.64ZM1567.12 832.963C1567.12 829.582 1567.61 826.618 1568.59 824.07C1569.61 821.522 1570.96 819.415 1572.63 817.749C1574.29 816.034 1576.21 814.76 1578.36 813.927C1580.52 813.045 1582.72 812.604 1584.98 812.604C1590.27 812.604 1594.38 814.245 1597.32 817.528C1600.31 820.811 1601.81 825.711 1601.81 832.228C1601.81 832.718 1601.78 833.282 1601.73 833.919C1601.73 834.507 1601.71 835.046 1601.66 835.536H1576.3C1576.55 838.623 1577.63 841.024 1579.54 842.739C1581.5 844.405 1584.31 845.238 1587.99 845.238C1590.15 845.238 1592.11 845.042 1593.87 844.65C1595.68 844.258 1597.1 843.841 1598.13 843.4L1599.31 850.677C1598.82 850.922 1598.13 851.191 1597.25 851.485C1596.42 851.73 1595.44 851.951 1594.31 852.147C1593.23 852.392 1592.06 852.588 1590.78 852.735C1589.51 852.882 1588.21 852.956 1586.89 852.956C1583.51 852.956 1580.57 852.466 1578.07 851.485C1575.57 850.456 1573.51 849.06 1571.89 847.296C1570.28 845.483 1569.08 843.376 1568.29 840.975C1567.51 838.525 1567.12 835.854 1567.12 832.963ZM1592.91 828.994C1592.91 827.769 1592.74 826.618 1592.4 825.54C1592.06 824.413 1591.54 823.457 1590.86 822.673C1590.22 821.84 1589.41 821.203 1588.43 820.762C1587.5 820.272 1586.37 820.027 1585.05 820.027C1583.68 820.027 1582.48 820.297 1581.45 820.836C1580.42 821.326 1579.54 821.987 1578.8 822.82C1578.12 823.653 1577.58 824.609 1577.19 825.687C1576.79 826.765 1576.52 827.867 1576.38 828.994H1592.91ZM1609.11 832.816C1609.11 829.974 1609.55 827.328 1610.43 824.878C1611.31 822.379 1612.56 820.223 1614.18 818.41C1615.84 816.597 1617.85 815.176 1620.2 814.147C1622.56 813.118 1625.2 812.604 1628.14 812.604C1631.77 812.604 1635.2 813.265 1638.43 814.588L1636.52 821.865C1635.49 821.424 1634.32 821.056 1632.99 820.762C1631.72 820.468 1630.35 820.321 1628.88 820.321C1625.4 820.321 1622.75 821.424 1620.94 823.629C1619.13 825.785 1618.22 828.847 1618.22 832.816C1618.22 836.638 1619.08 839.676 1620.79 841.93C1622.51 844.135 1625.4 845.238 1629.47 845.238C1630.98 845.238 1632.48 845.091 1633.95 844.797C1635.42 844.503 1636.69 844.135 1637.77 843.694L1639.02 851.044C1638.04 851.534 1636.55 851.976 1634.54 852.368C1632.58 852.76 1630.54 852.956 1628.44 852.956C1625.15 852.956 1622.29 852.466 1619.84 851.485C1617.44 850.456 1615.43 849.06 1613.81 847.296C1612.24 845.483 1611.07 843.351 1610.28 840.901C1609.5 838.402 1609.11 835.707 1609.11 832.816ZM1645.91 852V796.434L1654.8 794.964V814C1655.78 813.657 1656.91 813.363 1658.18 813.118C1659.5 812.873 1660.8 812.751 1662.08 812.751C1665.16 812.751 1667.71 813.192 1669.72 814.074C1671.78 814.907 1673.42 816.107 1674.64 817.675C1675.87 819.194 1676.73 821.032 1677.22 823.188C1677.76 825.344 1678.03 827.745 1678.03 830.391V852H1669.13V831.787C1669.13 829.729 1668.98 827.99 1668.69 826.569C1668.45 825.099 1668 823.923 1667.37 823.041C1666.78 822.11 1665.97 821.448 1664.94 821.056C1663.91 820.615 1662.64 820.395 1661.12 820.395C1659.94 820.395 1658.74 820.517 1657.52 820.762C1656.29 821.007 1655.39 821.228 1654.8 821.424V852H1645.91ZM1688.68 814.809C1690.4 814.319 1692.63 813.853 1695.37 813.412C1698.12 812.971 1701.16 812.751 1704.49 812.751C1707.62 812.751 1710.24 813.192 1712.35 814.074C1714.46 814.907 1716.12 816.107 1717.35 817.675C1718.62 819.194 1719.51 821.056 1720 823.261C1720.53 825.417 1720.8 827.794 1720.8 830.391V852H1711.91V831.787C1711.91 829.729 1711.76 827.99 1711.47 826.569C1711.22 825.099 1710.78 823.923 1710.15 823.041C1709.56 822.11 1708.73 821.448 1707.65 821.056C1706.62 820.615 1705.34 820.395 1703.83 820.395C1702.7 820.395 1701.52 820.468 1700.3 820.615C1699.07 820.762 1698.17 820.885 1697.58 820.983V852H1688.68V814.809ZM1766.45 832.743C1766.45 835.781 1766 838.549 1765.12 841.048C1764.24 843.547 1762.99 845.679 1761.37 847.443C1759.76 849.207 1757.8 850.579 1755.49 851.559C1753.24 852.539 1750.74 853.029 1748 853.029C1745.25 853.029 1742.75 852.539 1740.5 851.559C1738.25 850.579 1736.31 849.207 1734.69 847.443C1733.08 845.679 1731.8 843.547 1730.87 841.048C1729.99 838.549 1729.55 835.781 1729.55 832.743C1729.55 829.705 1729.99 826.961 1730.87 824.511C1731.8 822.012 1733.08 819.88 1734.69 818.116C1736.36 816.352 1738.32 815.005 1740.57 814.074C1742.83 813.094 1745.3 812.604 1748 812.604C1750.69 812.604 1753.17 813.094 1755.42 814.074C1757.72 815.005 1759.68 816.352 1761.3 818.116C1762.92 819.88 1764.17 822.012 1765.05 824.511C1765.98 826.961 1766.45 829.705 1766.45 832.743ZM1757.33 832.743C1757.33 828.921 1756.5 825.907 1754.83 823.702C1753.22 821.448 1750.94 820.321 1748 820.321C1745.06 820.321 1742.75 821.448 1741.09 823.702C1739.47 825.907 1738.66 828.921 1738.66 832.743C1738.66 836.614 1739.47 839.676 1741.09 841.93C1742.75 844.184 1745.06 845.311 1748 845.311C1750.94 845.311 1753.22 844.184 1754.83 841.93C1756.5 839.676 1757.33 836.614 1757.33 832.743ZM1788.98 852.735C1786.34 852.686 1784.13 852.392 1782.37 851.853C1780.65 851.314 1779.28 850.554 1778.25 849.575C1777.22 848.545 1776.49 847.296 1776.05 845.826C1775.66 844.307 1775.46 842.592 1775.46 840.681V796.434L1784.35 794.964V838.99C1784.35 840.068 1784.43 840.975 1784.57 841.71C1784.77 842.445 1785.09 843.082 1785.53 843.621C1785.97 844.111 1786.56 844.503 1787.29 844.797C1788.08 845.042 1789.06 845.238 1790.23 845.385L1788.98 852.735ZM1832.19 832.743C1832.19 835.781 1831.75 838.549 1830.87 841.048C1829.99 843.547 1828.74 845.679 1827.12 847.443C1825.5 849.207 1823.54 850.579 1821.24 851.559C1818.99 852.539 1816.49 853.029 1813.74 853.029C1811 853.029 1808.5 852.539 1806.25 851.559C1803.99 850.579 1802.06 849.207 1800.44 847.443C1798.82 845.679 1797.55 843.547 1796.62 841.048C1795.74 838.549 1795.3 835.781 1795.3 832.743C1795.3 829.705 1795.74 826.961 1796.62 824.511C1797.55 822.012 1798.82 819.88 1800.44 818.116C1802.11 816.352 1804.07 815.005 1806.32 814.074C1808.58 813.094 1811.05 812.604 1813.74 812.604C1816.44 812.604 1818.91 813.094 1821.17 814.074C1823.47 815.005 1825.43 816.352 1827.05 818.116C1828.67 819.88 1829.91 822.012 1830.8 824.511C1831.73 826.961 1832.19 829.705 1832.19 832.743ZM1823.08 832.743C1823.08 828.921 1822.25 825.907 1820.58 823.702C1818.96 821.448 1816.68 820.321 1813.74 820.321C1810.8 820.321 1808.5 821.448 1806.84 823.702C1805.22 825.907 1804.41 828.921 1804.41 832.743C1804.41 836.614 1805.22 839.676 1806.84 841.93C1808.5 844.184 1810.8 845.311 1813.74 845.311C1816.68 845.311 1818.96 844.184 1820.58 841.93C1822.25 839.676 1823.08 836.614 1823.08 832.743ZM1848.34 831.787C1848.34 835.56 1849.15 838.329 1850.76 840.093C1852.43 841.808 1854.56 842.665 1857.16 842.665C1858.58 842.665 1859.9 842.469 1861.13 842.077C1862.4 841.685 1863.43 841.22 1864.21 840.681V820.762C1863.58 820.615 1862.79 820.493 1861.86 820.395C1860.93 820.248 1859.75 820.174 1858.33 820.174C1855.1 820.174 1852.63 821.252 1850.91 823.408C1849.2 825.515 1848.34 828.308 1848.34 831.787ZM1873.11 848.104C1873.11 854.23 1871.54 858.713 1868.4 861.555C1865.32 864.397 1860.56 865.818 1854.14 865.818C1851.79 865.818 1849.49 865.622 1847.24 865.23C1845.03 864.838 1843.02 864.324 1841.21 863.687L1842.83 856.116C1844.34 856.753 1846.06 857.268 1847.97 857.66C1849.93 858.052 1852.04 858.248 1854.29 858.248C1857.87 858.248 1860.42 857.513 1861.94 856.043C1863.45 854.573 1864.21 852.392 1864.21 849.501V848.031C1863.33 848.472 1862.16 848.913 1860.69 849.354C1859.26 849.795 1857.62 850.015 1855.76 850.015C1853.31 850.015 1851.06 849.623 1849 848.839C1846.99 848.055 1845.25 846.904 1843.78 845.385C1842.36 843.866 1841.23 841.979 1840.4 839.725C1839.62 837.422 1839.22 834.776 1839.22 831.787C1839.22 828.994 1839.64 826.422 1840.47 824.07C1841.36 821.718 1842.6 819.709 1844.22 818.043C1845.89 816.377 1847.9 815.078 1850.25 814.147C1852.6 813.216 1855.27 812.751 1858.26 812.751C1861.15 812.751 1863.9 812.971 1866.49 813.412C1869.09 813.853 1871.29 814.319 1873.11 814.809V848.104ZM1915.81 813.559C1911.84 828.161 1907.23 841.391 1901.99 853.25C1901.01 855.455 1900 857.341 1898.97 858.909C1897.95 860.477 1896.79 861.776 1895.52 862.804C1894.25 863.834 1892.83 864.569 1891.26 865.01C1889.69 865.5 1887.88 865.745 1885.82 865.745C1884.45 865.745 1883.07 865.598 1881.7 865.304C1880.38 865.01 1879.37 864.691 1878.69 864.348L1880.31 857.219C1882.07 857.905 1883.81 858.248 1885.52 858.248C1887.83 858.248 1889.62 857.684 1890.89 856.557C1892.21 855.479 1893.36 853.789 1894.34 851.485C1891.55 846.095 1888.86 840.215 1886.26 833.845C1883.71 827.475 1881.43 820.713 1879.42 813.559H1888.91C1889.4 815.617 1889.98 817.847 1890.67 820.248C1891.4 822.649 1892.19 825.099 1893.02 827.598C1893.85 830.048 1894.74 832.498 1895.67 834.948C1896.6 837.398 1897.53 839.676 1898.46 841.783C1900.03 837.422 1901.5 832.792 1902.87 827.892C1904.24 822.943 1905.49 818.165 1906.62 813.559H1915.81Z" fill="#4179AD"/>
<path d="M1205.59 646.849H1222.28V721H1205.59V689.542H1177.56V721H1160.87V646.849H1177.56V675.204H1205.59V646.849ZM1308.99 721V646.849H1359.07V660.866H1325.69V675.418H1355.33V689.114H1325.69V706.983H1361.53V721H1308.99ZM1493.08 721C1492.3 718.432 1491.41 715.793 1490.41 713.082C1489.48 710.371 1488.55 707.661 1487.63 704.95H1458.74C1457.81 707.661 1456.85 710.371 1455.85 713.082C1454.92 715.793 1454.06 718.432 1453.28 721H1435.94C1438.73 713.011 1441.37 705.628 1443.86 698.851C1446.36 692.074 1448.78 685.69 1451.14 679.698C1453.56 673.706 1455.92 668.035 1458.2 662.685C1460.55 657.264 1462.98 651.985 1465.48 646.849H1481.42C1483.84 651.985 1486.23 657.264 1488.59 662.685C1490.94 668.035 1493.3 673.706 1495.65 679.698C1498.08 685.69 1500.54 692.074 1503.03 698.851C1505.53 705.628 1508.17 713.011 1510.95 721H1493.08ZM1473.07 663.648C1472.72 664.718 1472.18 666.18 1471.47 668.035C1470.76 669.89 1469.93 672.03 1469.01 674.455C1468.08 676.88 1467.05 679.555 1465.9 682.48C1464.83 685.405 1463.73 688.472 1462.59 691.682H1483.67C1482.53 688.472 1481.42 685.405 1480.35 682.48C1479.28 679.555 1478.25 676.88 1477.25 674.455C1476.32 672.03 1475.5 669.89 1474.79 668.035C1474.07 666.18 1473.5 664.718 1473.07 663.648ZM1639.64 706.662V721H1590.1V646.849H1606.79V706.662H1639.64ZM1766.58 646.849V661.08H1744.22V721H1727.53V661.08H1705.16V646.849H1766.58ZM1891.58 646.849H1908.28V721H1891.58V689.542H1863.55V721H1846.86V646.849H1863.55V675.204H1891.58V646.849Z" fill="#4179AD"/>
<path d="M42.9758 551.4C28.8758 547.6 13.4758 535.6 7.07579 523.3C0.775794 511.3 -1.42421 497.4 0.975788 484.4C3.57579 470 0.875778 473.5 132.376 311C199.876 227.7 257.376 157.1 260.176 154.2C286.176 127.4 331.476 132.9 350.376 165.1C356.476 175.6 358.176 182 358.176 194.5C358.176 207.4 355.676 216.1 349.176 225.7C342.276 236 100.276 534.5 94.8758 539.3C88.9758 544.6 77.9758 550.2 70.0758 551.9C62.8758 553.4 49.5758 553.2 42.9758 551.4Z" fill="#CAB164"/>
<path d="M285.376 551.1C276.376 548.6 269.276 544.3 261.276 536.7C247.576 523.8 241.176 505.6 243.876 487.3C246.276 471.1 245.776 471.9 320.776 379C358.276 332.5 391.876 291.8 395.376 288.4C406.876 277.4 424.376 271.1 438.876 272.6C457.176 274.5 472.476 283.1 481.876 297C494.176 315.1 495.776 336.8 486.176 355.6C483.276 361.3 465.876 383.5 413.876 447.8C376.176 494.4 342.876 534.9 339.876 537.8C333.776 543.8 321.676 550.1 313.076 551.9C305.376 553.5 292.276 553.1 285.376 551.1Z" fill="#CAB164"/>
<path d="M42.7757 250.6C19.3757 244.1 2.07572 223.2 0.175724 198.9C-2.42428 166 24.1757 137 56.8757 137C78.9757 137 99.5758 149.7 109.076 169C113.776 178.5 114.776 183.3 114.876 194.5C114.876 211.1 109.876 223.2 97.9757 235.1C89.6757 243.4 80.0758 248.8 70.0758 250.9C63.1758 252.3 48.5757 252.2 42.7757 250.6Z" fill="#CAB164"/>
<path d="M529.476 250.5C514.776 246.5 499.276 233.8 493.176 221C477.576 188.3 492.476 151.7 526.076 139.8C533.676 137.1 551.276 136.6 559.376 138.9C583.176 145.5 600.176 166.3 601.576 190.5C602.276 202.1 600.776 209.5 595.876 219.9C588.476 235.3 573.076 247.6 557.076 250.9C549.976 252.4 535.576 252.1 529.476 250.5Z" fill="#CAB164"/>
<path fill-rule="evenodd" clip-rule="evenodd" d="M2175.38 887.413C2208.48 898.713 2244.18 904.113 2312.88 908.513C2321.08 909.013 2349.88 908.113 2361.88 907.013C2394.38 904.013 2428.78 896.113 2456.18 885.513C2487.38 873.413 2516.88 855.213 2538.98 834.413C2557.98 816.513 2579.18 785.413 2587.48 763.513C2599.48 731.413 2602.38 680.213 2597.38 586.613C2589.48 438.213 2588.98 405.713 2591.48 206.613C2592.18 152.013 2591.78 147.013 2585.78 131.213C2582.48 122.413 2572.28 104.813 2566.28 97.3128C2553.28 81.2128 2537.98 66.4128 2520.38 52.9128C2519.03 51.8672 2517.51 50.6855 2515.93 49.4591C2511.76 46.2281 2507.2 42.6874 2504.38 40.5128C2496.18 34.1128 2475.58 23.6128 2461.38 18.8128C2443.08 12.5128 2416.78 6.71275 2393.38 3.71275C2343.18 -2.68725 2278.48 -0.787253 2208.08 9.21275C2165.28 15.2127 2157.38 17.4128 2132.78 29.6128C2091.88 49.9128 2060.88 77.4128 2035.38 116.113C2013.28 149.513 1998.28 188.513 1992.48 227.813C1987.68 260.013 1985.38 298.713 1986.18 335.613C1987.68 400.513 1994.28 447.213 2016.38 547.113C2031.18 614.113 2033.58 627.313 2036.38 657.613C2041.68 714.913 2052.28 759.113 2068.88 793.913C2091.08 840.313 2125.18 870.313 2175.38 887.413Z" fill="#4179AD"/>
<path d="M2368.88 272.863C2368.88 248.424 2388.69 228.613 2413.13 228.613C2437.56 228.613 2457.38 248.424 2457.38 272.863V591.863C2457.38 616.301 2437.56 636.113 2413.13 636.113C2388.69 636.113 2368.88 616.301 2368.88 591.863V522.363C2368.88 491.573 2343.92 466.613 2313.13 466.613C2282.34 466.613 2257.38 491.573 2257.38 522.363V608.696C2257.38 625.492 2247.87 640.841 2232.83 648.319C2203.41 662.944 2168.88 641.547 2168.88 608.696V272.863C2168.88 248.424 2188.69 228.613 2213.13 228.613C2237.56 228.613 2257.38 248.424 2257.38 272.863V322.363C2257.38 353.153 2282.34 378.113 2313.13 378.113C2343.92 378.113 2368.88 353.153 2368.88 322.363V272.863Z" fill="white"/>
</svg>
