<svg width="602" height="416" viewBox="0 0 602 416" fill="none" xmlns="http://www.w3.org/2000/svg">
<path d="M42.9755 414.4C28.8755 410.6 13.4755 398.6 7.07555 386.3C0.77555 374.3 -1.42446 360.4 0.975544 347.4C3.57554 333 0.875534 336.5 132.376 174C199.876 90.7 257.376 20.1 260.176 17.2C286.176 -9.59999 331.476 -4.10002 350.376 28.1C356.476 38.6 358.176 45 358.176 57.5C358.176 70.4 355.676 79.1 349.176 88.7C342.276 99 100.276 397.5 94.8755 402.3C88.9755 407.6 77.9756 413.2 70.0756 414.9C62.8756 416.4 49.5755 416.2 42.9755 414.4Z" fill="#CAB164"/>
<path d="M285.375 414.1C276.375 411.6 269.275 407.3 261.275 399.7C247.575 386.8 241.175 368.6 243.875 350.3C246.275 334.1 245.775 334.9 320.775 242C358.275 195.5 391.875 154.8 395.375 151.4C406.875 140.4 424.375 134.1 438.875 135.6C457.175 137.5 472.475 146.1 481.875 160C494.175 178.1 495.775 199.8 486.175 218.6C483.275 224.3 465.875 246.5 413.875 310.8C376.175 357.4 342.875 397.9 339.875 400.8C333.775 406.8 321.675 413.1 313.075 414.9C305.375 416.5 292.275 416.1 285.375 414.1Z" fill="#CAB164"/>
<path d="M42.7757 113.6C19.3757 107.1 2.07572 86.2 0.175724 61.9C-2.42428 29 24.1757 0 56.8757 0C78.9757 0 99.5758 12.7 109.076 32C113.776 41.5 114.776 46.3 114.876 57.5C114.876 74.1 109.876 86.2 97.9757 98.1C89.6757 106.4 80.0758 111.8 70.0758 113.9C63.1758 115.3 48.5757 115.2 42.7757 113.6Z" fill="#CAB164"/>
<path d="M529.475 113.5C514.775 109.5 499.275 96.8 493.175 84C477.575 51.3 492.475 14.7 526.075 2.8C533.675 0.100001 551.275 -0.399962 559.375 1.90004C583.175 8.50004 600.175 29.3 601.575 53.5C602.275 65.1 600.775 72.5 595.875 82.9C588.475 98.3 573.075 110.6 557.075 113.9C549.975 115.4 535.575 115.1 529.475 113.5Z" fill="#CAB164"/>
</svg>
